<!--?xml version="1.0" encoding="UTF-8"?-->
<svg viewBox="0 0 1428.64 264.03" xmlns:xlink="http://www.w3.org/1999/xlink" xmlns="http://www.w3.org/2000/svg" data-name="Layer 2" id="Layer_2">
  <defs>
    <style>
      .cls-1 {
        fill: url(#linear-gradient);
      }

      .cls-2 {
        font-family: HelveticaNeue, 'Helvetica Neue';
        font-size: 125px;
      }

      .cls-2, .cls-3 {
        fill: #fff;
      }

      .cls-3 {
        stroke-width: 0px;
      }
    </style>
    <linearGradient gradientUnits="userSpaceOnUse" y2="132.01" x2="1428.64" y1="132.01" x1="0" id="linear-gradient">
      <stop stop-color="#ffe083" offset="0"></stop>
      <stop stop-color="#fcb936" offset=".21"></stop>
      <stop stop-color="#ef5376" offset=".38"></stop>
      <stop stop-color="#ec3792" offset=".52"></stop>
      <stop stop-color="#8c4f9e" offset=".74"></stop>
      <stop stop-color="#5d5da8" offset="1"></stop>
    </linearGradient>
  </defs>
  <g id="Background">
    <g>
      <rect ry="132.01" rx="132.01" height="264.03" width="1428.64" y="0" x="0" class="cls-1"></rect>
      <path d="m139.07,243.41c-61.42,0-111.39-49.97-111.39-111.39S77.65,20.62,139.07,20.62s111.39,49.97,111.39,111.39-49.97,111.39-111.39,111.39Zm0-208.42c-53.5,0-97.02,43.52-97.02,97.02s43.52,97.02,97.02,97.02,97.02-43.52,97.02-97.02-43.52-97.02-97.02-97.02Z" class="cls-3"></path>
      <path d="m138,84.24c15.69,0,17.54.06,23.74.34,5.73.26,8.84,1.22,10.91,2.02,2.74,1.06,4.7,2.34,6.75,4.39,2.06,2.05,3.33,4.01,4.4,6.76.8,2.07,1.76,5.18,2.02,10.91.28,6.2.34,8.05.34,23.74s-.06,17.54-.34,23.74c-.26,5.73-1.22,8.84-2.02,10.91-1.07,2.74-2.34,4.7-4.4,6.75-2.06,2.06-4.01,3.33-6.75,4.39-2.07.81-5.18,1.76-10.91,2.02-6.19.28-8.05.34-23.74.34s-17.55-.06-23.74-.34c-5.73-.26-8.84-1.22-10.91-2.02-2.74-1.06-4.7-2.34-6.75-4.39-2.06-2.06-3.33-4.01-4.4-6.75-.8-2.07-1.76-5.18-2.02-10.91-.28-6.19-.34-8.05-.34-23.74s.06-17.55.34-23.74c.26-5.73,1.22-8.84,2.02-10.91,1.07-2.74,2.34-4.7,4.4-6.76,2.06-2.06,4.01-3.33,6.75-4.39,2.07-.8,5.18-1.76,10.91-2.02,6.2-.28,8.05-.34,23.74-.34m0-10.59c-15.96,0-17.95.07-24.22.35-6.25.29-10.52,1.28-14.26,2.73-3.86,1.5-7.14,3.51-10.41,6.77-3.27,3.27-5.28,6.54-6.78,10.41-1.45,3.74-2.45,8.01-2.73,14.26-.29,6.27-.36,8.27-.36,24.22s.07,17.95.36,24.22c.28,6.25,1.28,10.52,2.73,14.26,1.5,3.86,3.51,7.14,6.78,10.41,3.26,3.27,6.54,5.27,10.41,6.78,3.74,1.45,8.01,2.45,14.26,2.73,6.27.28,8.27.35,24.22.35s17.95-.07,24.22-.35c6.25-.29,10.52-1.28,14.26-2.73,3.86-1.5,7.14-3.51,10.4-6.78,3.27-3.27,5.28-6.54,6.78-10.41,1.45-3.74,2.45-8.01,2.73-14.26.29-6.27.36-8.27.36-24.22s-.07-17.96-.36-24.22c-.28-6.25-1.28-10.52-2.73-14.26-1.5-3.86-3.51-7.14-6.78-10.41-3.27-3.26-6.54-5.27-10.4-6.77-3.74-1.45-8.01-2.45-14.26-2.73-6.27-.29-8.27-.35-24.22-.35m0,28.58c-16.66,0-30.17,13.51-30.17,30.17s13.51,30.17,30.17,30.17,30.17-13.51,30.17-30.17-13.51-30.17-30.17-30.17m0,49.75c-10.81,0-19.58-8.77-19.58-19.58s8.77-19.58,19.58-19.58,19.58,8.77,19.58,19.58-8.77,19.58-19.58,19.58m38.41-50.94c0-3.89-3.15-7.05-7.05-7.05s-7.05,3.16-7.05,7.05,3.16,7.05,7.05,7.05,7.05-3.16,7.05-7.05" class="cls-3"></path>
    </g>
    <text transform="translate(365.44 166.81)" class="cls-2"><tspan y="0" x="0">Instagram</tspan></text>
  </g>
</svg>