<!--?xml version="1.0" encoding="UTF-8"?-->
<svg viewBox="0 0 1428.64 264.03" xmlns:xlink="http://www.w3.org/1999/xlink" xmlns="http://www.w3.org/2000/svg" data-name="Layer 2" id="Layer_2">
  <defs>
    <style>
      .cls-1 {
        fill: url(#Degradado_sin_nombre_47);
      }

      .cls-1, .cls-2 {
        stroke-width: 0px;
      }

      .cls-3 {
        letter-spacing: -.11em;
      }

      .cls-4 {
        font-family: HelveticaNeue, 'Helvetica Neue';
        font-size: 125px;
      }

      .cls-4, .cls-2 {
        fill: #fff;
      }
    </style>
    <linearGradient gradientUnits="userSpaceOnUse" y2="450.12" x2="1265.29" y1="-186.09" x1="163.35" data-name="Degradado sin nombre 47" id="Degradado_sin_nombre_47">
      <stop stop-color="#8abce3" offset=".25"></stop>
      <stop stop-color="#008aca" offset="1"></stop>
    </linearGradient>
  </defs>
  <g id="Background">
    <g>
      <rect ry="132.01" rx="132.01" height="264.03" width="1428.64" y="0" x="0" class="cls-1"></rect>
      <path d="m122.03,192.34c49.05,0,75.88-40.64,75.88-75.88,0-1.15-.02-2.31-.08-3.45,5.21-3.76,9.73-8.46,13.31-13.81-4.78,2.12-9.92,3.55-15.31,4.2,5.5-3.3,9.73-8.53,11.72-14.75-5.15,3.05-10.86,5.28-16.93,6.47-4.87-5.18-11.8-8.43-19.47-8.43-14.73,0-26.67,11.94-26.67,26.67,0,2.09.23,4.13.69,6.08-22.16-1.11-41.82-11.73-54.97-27.86-2.29,3.94-3.61,8.52-3.61,13.4,0,9.25,4.71,17.42,11.87,22.2-4.37-.13-8.48-1.33-12.08-3.34,0,.11,0,.23,0,.34,0,12.92,9.2,23.7,21.4,26.15-2.24.61-4.6.94-7.03.94-1.72,0-3.39-.17-5.02-.48,3.4,10.6,13.24,18.31,24.91,18.52-9.13,7.15-20.62,11.42-33.12,11.42-2.15,0-4.27-.12-6.36-.37,11.8,7.56,25.81,11.98,40.88,11.98" class="cls-2"></path>
      <path d="m139.07,243.41c-61.42,0-111.39-49.97-111.39-111.39S77.65,20.62,139.07,20.62s111.39,49.97,111.39,111.39-49.97,111.39-111.39,111.39Zm0-208.42c-53.5,0-97.02,43.52-97.02,97.02s43.52,97.02,97.02,97.02,97.02-43.52,97.02-97.02-43.52-97.02-97.02-97.02Z" class="cls-2"></path>
    </g>
    <text transform="translate(365.44 166.71)" class="cls-4"><tspan y="0" x="0" class="cls-3">T</tspan><tspan y="0" x="57.87">witter</tspan></text>
  </g>
</svg>