<!--?xml version="1.0" encoding="UTF-8"?-->
<svg viewBox="0 0 1428.64 264.03" xmlns:xlink="http://www.w3.org/1999/xlink" xmlns="http://www.w3.org/2000/svg" data-name="Layer 2" id="Layer_2">
  <defs>
    <style>
      .cls-1 {
        letter-spacing: -.09em;
      }

      .cls-2 {
        letter-spacing: -.11em;
      }

      .cls-3 {
        font-family: HelveticaNeue, 'Helvetica Neue';
        font-size: 125px;
      }

      .cls-3, .cls-4 {
        fill: #fff;
      }

      .cls-5 {
        fill: url(#Degradado_sin_nombre_116);
      }

      .cls-5, .cls-4 {
        stroke-width: 0px;
      }
    </style>
    <linearGradient gradientUnits="userSpaceOnUse" y2="450.12" x2="1265.29" y1="-186.09" x1="163.35" data-name="Degradado sin nombre 116" id="Degradado_sin_nombre_116">
      <stop stop-color="#dd6b56" offset=".38"></stop>
      <stop stop-color="#cf190d" offset="1"></stop>
    </linearGradient>
  </defs>
  <g id="Background">
    <g>
      <rect ry="132.01" rx="132.01" height="264.03" width="1428.64" y="0" x="0" class="cls-5"></rect>
      <path d="m199.98,107.16s-1.22-8.56-4.94-12.34c-4.73-4.95-10.02-4.98-12.45-5.27-17.39-1.26-43.48-1.26-43.48-1.26h-.05s-26.09,0-43.48,1.26c-2.43.29-7.72.32-12.45,5.27-3.73,3.77-4.94,12.34-4.94,12.34,0,0-1.24,10.06-1.24,20.11v9.43c0,10.06,1.24,20.11,1.24,20.11,0,0,1.21,8.56,4.94,12.34,4.73,4.95,10.94,4.79,13.7,5.31,9.95.95,42.26,1.25,42.26,1.25,0,0,26.12-.04,43.51-1.3,2.43-.29,7.72-.32,12.45-5.27,3.73-3.77,4.94-12.34,4.94-12.34,0,0,1.24-10.06,1.24-20.11v-9.43c0-10.06-1.24-20.11-1.24-20.11Zm-73.74,40.97v-34.92l33.58,17.52-33.58,17.4Z" class="cls-4"></path>
      <path d="m139.07,243.41c-61.42,0-111.39-49.97-111.39-111.39S77.65,20.62,139.07,20.62s111.39,49.97,111.39,111.39-49.97,111.39-111.39,111.39Zm0-208.42c-53.5,0-97.02,43.52-97.02,97.02s43.52,97.02,97.02,97.02,97.02-43.52,97.02-97.02-43.52-97.02-97.02-97.02Z" class="cls-4"></path>
    </g>
    <text transform="translate(365.44 168.16)" class="cls-3"><tspan y="0" x="0" class="cls-2">Y</tspan><tspan y="0" x="67.13">ou</tspan><tspan y="0" x="208.37" class="cls-1">T</tspan><tspan y="0" x="268.62">ube</tspan></text>
  </g>
</svg>