<!--?xml version="1.0" encoding="UTF-8"?-->
<svg viewBox="0 0 8000 7000" xmlns="http://www.w3.org/2000/svg" data-name="Livello 1" id="Livello_1">
  <defs>
    <style>
      .cls-1, .cls-2 {
        fill: #fff;
      }

      .cls-3 {
        fill: #e80c2f;
      }

      .cls-4 {
        fill: #a7211c;
      }

      .cls-2 {
        font-family: Poppins-Bold, Poppins;
        font-size: 650px;
        font-weight: 700;
      }

      .cls-5 {
        opacity: .25;
      }
    </style>
  </defs>
  <g>
    <path d="m1001.6,2638.83c-93.28,0-169.6,76.32-169.6,169.6v1511.35c0,93.28,76.32,169.6,169.6,169.6h1106.63v-1850.55H1001.6Z" class="cls-4"></path>
    <path d="m1001.6,2638.83c-93.28,0-169.6,76.32-169.6,169.6v1511.35c0,93.28,76.32,169.6,169.6,169.6h1106.63v-1850.55H1001.6Z" class="cls-5"></path>
    <path d="m6998.4,2638.83H2108.23v1850.55h4890.16c93.28,0,169.6-76.32,169.6-169.6v-1511.35c0-93.28-76.32-169.6-169.6-169.6Z" class="cls-3"></path>
    <path d="m6998.4,2638.83H2108.23v1850.55h4890.16c93.28,0,169.6-76.32,169.6-169.6v-1511.35c0-93.28-76.32-169.6-169.6-169.6Z" class="cls-5"></path>
    <path d="m1001.6,2510.62c-93.28,0-169.6,76.32-169.6,169.6v1511.35c0,93.28,76.32,169.6,169.6,169.6h1106.63v-1850.55H1001.6Z" class="cls-4"></path>
    <path d="m6998.4,2510.62H2108.23v1850.55h4890.16c93.28,0,169.6-76.32,169.6-169.6v-1511.35c0-93.28-76.32-169.6-169.6-169.6Z" class="cls-3"></path>
  </g>
  <text transform="translate(2473.01 3689.07)" class="cls-2"><tspan y="0" x="0">BUY TICKETS</tspan></text>
  <g>
    <path d="m1780.12,3689.07h-620.01c-44.97,0-81.58-36.61-81.58-81.58v-65.26c0-9.01,7.31-16.32,16.32-16.32h16.32c35.99,0,65.26-29.27,65.26-65.26s-29.27-65.26-65.26-65.26h-16.32c-9.01,0-16.32-7.31-16.32-16.32v-65.26c0-44.97,36.61-81.58,81.58-81.58h620.01c44.97,0,81.58,36.61,81.58,81.58v65.26c0,9.01-7.31,16.32-16.32,16.32h-16.32c-35.99,0-65.26,29.27-65.26,65.26,0,17.43,6.79,33.81,19.12,46.14,12.3,12.33,28.68,19.12,46.11,19.12h16.32c9.01,0,16.32,7.31,16.32,16.32v65.26c.03,44.97-36.58,81.58-81.55,81.58Zm-668.96-130.53v48.95c0,26.99,21.96,48.95,48.95,48.95h620.01c26.99,0,48.95-21.96,48.95-48.95v-48.95h-.03c-26.14,0-50.71-10.18-69.18-28.65-18.5-18.5-28.68-43.11-28.68-69.25,0-53.97,43.92-97.9,97.9-97.9v-48.95c0-26.99-21.96-48.95-48.95-48.95h-620.01c-26.99,0-48.95,21.96-48.95,48.95v48.95c53.97,0,97.9,43.92,97.9,97.9s-43.92,97.9-97.9,97.9h0Z" class="cls-1"></path>
    <path d="m1355.9,3297.48c-9.01,0-16.32-7.31-16.32-16.32v-32.63c0-9.01,7.31-16.32,16.32-16.32s16.32,7.31,16.32,16.32v32.63c0,9.01-7.31,16.32-16.32,16.32Z" class="cls-1"></path>
    <path d="m1355.9,3573.58c-9.01,0-16.32-7.31-16.32-16.32v-55.18c0-9.01,7.31-16.32,16.32-16.32s16.32,7.28,16.32,16.32v55.21c0,9.01-7.31,16.28-16.32,16.28Zm0-138.03c-9.01,0-16.32-7.31-16.32-16.32v-55.21c0-9.01,7.31-16.32,16.32-16.32s16.32,7.31,16.32,16.32v55.21c0,9.01-7.31,16.32-16.32,16.32Z" class="cls-1"></path>
    <path d="m1355.9,3689.07c-9.01,0-16.32-7.31-16.32-16.32v-32.63c0-9.01,7.31-16.32,16.32-16.32s16.32,7.31,16.32,16.32v32.63c0,9.01-7.31,16.32-16.32,16.32Z" class="cls-1"></path>
  </g>
</svg>