<svg xmlns="http://www.w3.org/2000/svg" xmlns:xlink="http://www.w3.org/1999/xlink" viewBox="0 0 306.67 68.97"><defs><style>.cls-1{fill:url(#linear-gradient);}.cls-2{fill:url(#linear-gradient-2);}.cls-3{fill:url(#linear-gradient-3);}.cls-4{fill:url(#linear-gradient-4);}.cls-5{fill:url(#linear-gradient-5);}.cls-6{fill:url(#linear-gradient-6);}.cls-7{fill:url(#linear-gradient-7);}.cls-8{fill:url(#linear-gradient-8);}.cls-9{fill:url(#linear-gradient-9);}.cls-10{fill:url(#linear-gradient-10);}.cls-11{fill:url(#linear-gradient-11);}.cls-12{fill:url(#linear-gradient-12);}.cls-13{fill:url(#linear-gradient-13);}.cls-14{fill:url(#linear-gradient-14);}.cls-15{fill:url(#linear-gradient-15);}.cls-16{fill:url(#linear-gradient-16);}.cls-17{fill:url(#linear-gradient-17);}.cls-18{fill:url(#linear-gradient-18);}.cls-19{fill:url(#linear-gradient-19);}.cls-20{fill:url(#linear-gradient-20);}.cls-21{fill:url(#linear-gradient-21);}.cls-22{fill:url(#linear-gradient-22);}.cls-23{fill:url(#linear-gradient-23);}.cls-24{fill:url(#linear-gradient-24);}.cls-25{fill:url(#linear-gradient-25);}.cls-26{fill:url(#linear-gradient-26);}.cls-27{fill:url(#linear-gradient-27);}.cls-28{fill:url(#linear-gradient-28);}.cls-29{fill:url(#linear-gradient-29);}.cls-30{fill:url(#linear-gradient-30);}.cls-31{fill:url(#linear-gradient-31);}.cls-32{fill:url(#linear-gradient-32);}.cls-33{fill:url(#linear-gradient-33);}.cls-34{fill:url(#linear-gradient-34);}.cls-35{fill:url(#linear-gradient-35);}.cls-36{fill:url(#linear-gradient-36);}.cls-37{fill:url(#linear-gradient-37);}.cls-38{fill:url(#linear-gradient-38);}.cls-39{fill:url(#linear-gradient-39);}.cls-40{fill:url(#linear-gradient-40);}.cls-41{fill:url(#linear-gradient-41);}.cls-42{fill:url(#linear-gradient-42);}.cls-43{fill:url(#linear-gradient-43);}.cls-44{fill:url(#linear-gradient-44);}.cls-45{fill:url(#linear-gradient-45);}.cls-46{fill:url(#linear-gradient-46);}.cls-47{fill:url(#linear-gradient-47);}.cls-48{fill:url(#linear-gradient-48);}.cls-49{fill:url(#linear-gradient-49);}.cls-50{fill:url(#linear-gradient-50);}.cls-51{fill:url(#linear-gradient-51);}.cls-52{fill:url(#linear-gradient-52);}.cls-53{fill:url(#linear-gradient-53);}.cls-54{fill:url(#linear-gradient-54);}.cls-55{fill:url(#linear-gradient-55);}.cls-56{fill:url(#linear-gradient-56);}.cls-57{fill:url(#linear-gradient-57);}.cls-58{fill:url(#linear-gradient-58);}.cls-59{fill:url(#linear-gradient-59);}.cls-60{fill:url(#linear-gradient-60);}.cls-61{fill:url(#linear-gradient-61);}.cls-62{fill:url(#linear-gradient-62);}.cls-63{fill:url(#linear-gradient-63);}.cls-64{fill:url(#linear-gradient-64);}.cls-65{fill:url(#linear-gradient-65);}.cls-66{fill:url(#linear-gradient-66);}.cls-67{fill:url(#linear-gradient-67);}.cls-68{fill:url(#linear-gradient-68);}.cls-69{fill:url(#linear-gradient-69);}.cls-70{fill:url(#linear-gradient-70);}.cls-71{fill:url(#linear-gradient-71);}.cls-72{fill:url(#linear-gradient-72);}.cls-73{fill:url(#linear-gradient-73);}.cls-74{fill:url(#linear-gradient-74);}.cls-75{fill:url(#linear-gradient-75);}.cls-76{fill:url(#linear-gradient-76);}.cls-77{fill:url(#linear-gradient-77);}.cls-78{fill:url(#linear-gradient-78);}.cls-79{fill:url(#linear-gradient-79);}.cls-80{fill:url(#linear-gradient-80);}.cls-81{fill:url(#linear-gradient-81);}.cls-82{fill:url(#linear-gradient-82);}.cls-83{fill:url(#linear-gradient-83);}.cls-84{fill:url(#linear-gradient-84);}.cls-85{fill:url(#linear-gradient-85);}.cls-86{fill:url(#linear-gradient-86);}.cls-87{fill:url(#linear-gradient-87);}.cls-88{fill:#ec1c3c;}.cls-89{fill:url(#linear-gradient-88);}</style><linearGradient id="linear-gradient" x1="35.26" y1="21.98" x2="37.29" y2="3.2" gradientTransform="translate(-0.04 -0.2) rotate(0.01)" gradientUnits="userSpaceOnUse"><stop offset="0.5" stop-color="#fff" stop-opacity="0"/><stop offset="1" stop-color="#ec1c3c"/></linearGradient><linearGradient id="linear-gradient-2" x1="35.07" y1="35.05" x2="39.54" y2="4.63" gradientTransform="matrix(0.15, 0.99, -0.99, 0.15, 50.58, -21.09)" xlink:href="#linear-gradient"/><linearGradient id="linear-gradient-3" x1="35.35" y1="35.24" x2="65.67" y2="35.81" xlink:href="#linear-gradient"/><linearGradient id="linear-gradient-4" x1="34.94" y1="34.92" x2="64.44" y2="26.69" xlink:href="#linear-gradient"/><linearGradient id="linear-gradient-5" x1="34.94" y1="35.34" x2="59.37" y2="43.67" xlink:href="#linear-gradient"/><linearGradient id="linear-gradient-6" x1="34.9" y1="35.72" x2="47.16" y2="49.28" gradientTransform="translate(39.03 -17) rotate(41.37)" xlink:href="#linear-gradient"/><linearGradient id="linear-gradient-7" x1="27.43" y1="22.55" x2="34.57" y2="34.36" gradientTransform="translate(17.45 -11.61) rotate(29.07)" gradientUnits="userSpaceOnUse"><stop offset="0" stop-color="#ec1c3c"/><stop offset="0.5" stop-color="#fff" stop-opacity="0"/></linearGradient><linearGradient id="linear-gradient-8" x1="35.35" y1="34.91" x2="60.43" y2="17.4" gradientTransform="matrix(0.82, 0.57, -0.57, 0.82, 23.4, -23.41)" xlink:href="#linear-gradient"/><linearGradient id="linear-gradient-9" x1="34.86" y1="30.72" x2="58.93" y2="30.72" xlink:href="#linear-gradient"/><linearGradient id="linear-gradient-10" x1="34.66" y1="35.2" x2="57.01" y2="22.42" xlink:href="#linear-gradient"/><linearGradient id="linear-gradient-11" x1="31.91" y1="5.05" x2="34.87" y2="31.09" gradientTransform="translate(-0.04 -0.2) rotate(0.01)" xlink:href="#linear-gradient-7"/><linearGradient id="linear-gradient-12" x1="15.89" y1="32.9" x2="35.24" y2="32.9" gradientTransform="matrix(0.22, 0.98, -0.98, 0.22, 51.93, 0.48)" xlink:href="#linear-gradient-7"/><linearGradient id="linear-gradient-13" x1="35.43" y1="35.36" x2="63.17" y2="48.72" xlink:href="#linear-gradient"/><linearGradient id="linear-gradient-14" x1="34.9" y1="35.47" x2="44.01" y2="53.02" gradientTransform="matrix(0.9, 0.44, -0.44, 0.9, 23.9, -13.16)" xlink:href="#linear-gradient"/><linearGradient id="linear-gradient-15" x1="24.38" y1="48.34" x2="34.14" y2="35.75" gradientTransform="translate(43.63 -6.95) rotate(50.94)" xlink:href="#linear-gradient-7"/><linearGradient id="linear-gradient-16" x1="18.21" y1="53.45" x2="34.29" y2="36.3" gradientTransform="translate(-0.04 -0.2) rotate(0.01)" xlink:href="#linear-gradient-7"/><linearGradient id="linear-gradient-17" x1="35.21" y1="41.28" x2="35.16" y2="56.63" xlink:href="#linear-gradient"/><linearGradient id="linear-gradient-18" x1="12.37" y1="56.6" x2="27" y2="43.1" gradientTransform="translate(-0.04 -0.2) rotate(0.01)" xlink:href="#linear-gradient-7"/><linearGradient id="linear-gradient-19" x1="21.49" y1="37.43" x2="35.28" y2="37.43" gradientTransform="matrix(0.95, 0.33, -0.33, 0.95, 13.72, -7.41)" xlink:href="#linear-gradient-7"/><linearGradient id="linear-gradient-20" x1="10.14" y1="38.04" x2="35.25" y2="38.04" gradientTransform="translate(9.49 -4.45) rotate(13.54)" xlink:href="#linear-gradient-7"/><linearGradient id="linear-gradient-21" x1="15.49" y1="36.2" x2="33.03" y2="35.28" gradientTransform="translate(2.14 -1.57) rotate(3.43)" xlink:href="#linear-gradient-7"/><linearGradient id="linear-gradient-22" x1="6.58" y1="34.5" x2="31.41" y2="35.09" gradientTransform="translate(-0.04 -0.2) rotate(0.01)" xlink:href="#linear-gradient-7"/><linearGradient id="linear-gradient-23" x1="12.71" y1="30.8" x2="35.21" y2="30.8" gradientTransform="translate(44 -2.85) rotate(68.86)" xlink:href="#linear-gradient-7"/><linearGradient id="linear-gradient-24" x1="28.61" y1="32.26" x2="35.34" y2="32.26" gradientTransform="matrix(0.7, 0.72, -0.72, 0.7, 32.67, -13.35)" xlink:href="#linear-gradient-7"/><linearGradient id="linear-gradient-25" x1="35.1" y1="35.82" x2="36.56" y2="31.25" gradientTransform="translate(53.46 -13.12) rotate(68.95)" xlink:href="#linear-gradient"/><linearGradient id="linear-gradient-26" x1="23.52" y1="34.57" x2="35.13" y2="34.57" gradientTransform="translate(59.95 1) rotate(82.9)" xlink:href="#linear-gradient-7"/><linearGradient id="linear-gradient-27" x1="25.87" y1="39.06" x2="35.46" y2="39.06" gradientTransform="matrix(0.79, 0.62, -0.62, 0.79, 30.66, -10.8)" xlink:href="#linear-gradient-7"/><linearGradient id="linear-gradient-28" x1="21.24" y1="24.21" x2="34.7" y2="34.61" gradientTransform="matrix(0.64, 0.77, -0.77, 0.64, 32.25, -10.75)" xlink:href="#linear-gradient-7"/><linearGradient id="linear-gradient-29" x1="20.55" y1="17.21" x2="34.69" y2="34.17" gradientTransform="translate(21.3 -11.64) rotate(37.93)" xlink:href="#linear-gradient-7"/><linearGradient id="linear-gradient-30" x1="15.69" y1="12.04" x2="34.1" y2="34.29" gradientTransform="translate(20.67 -10.77) rotate(40.04)" xlink:href="#linear-gradient-7"/><linearGradient id="linear-gradient-31" x1="10.57" y1="21.83" x2="30.15" y2="32.42" gradientTransform="translate(-0.04 -0.2) rotate(0.01)" xlink:href="#linear-gradient-7"/><linearGradient id="linear-gradient-32" x1="11.73" y1="14.37" x2="32.97" y2="33.13" gradientTransform="translate(-0.04 -0.2) rotate(0.01)" xlink:href="#linear-gradient-7"/><linearGradient id="linear-gradient-33" x1="18.02" y1="41.7" x2="35.24" y2="41.7" gradientTransform="translate(-0.04 -0.2) rotate(0.01)" xlink:href="#linear-gradient-7"/><linearGradient id="linear-gradient-34" x1="11.28" y1="44.88" x2="33.73" y2="35.55" gradientTransform="translate(16.87 -5.35) rotate(22.17)" xlink:href="#linear-gradient-7"/><linearGradient id="linear-gradient-35" x1="5.84" y1="42.28" x2="31.45" y2="35.91" gradientTransform="translate(-0.04 -0.2) rotate(0.01)" xlink:href="#linear-gradient-7"/><linearGradient id="linear-gradient-36" x1="3.35" y1="38.06" x2="27.11" y2="36.07" gradientTransform="matrix(1, 0.1, -0.1, 1, 3.71, -1.82)" xlink:href="#linear-gradient-7"/><linearGradient id="linear-gradient-37" x1="4.78" y1="30.86" x2="34.03" y2="35.18" gradientTransform="matrix(0.14, 0.99, -0.99, 0.14, 48.83, 9.66)" xlink:href="#linear-gradient-7"/><linearGradient id="linear-gradient-38" x1="7.89" y1="28.29" x2="33.54" y2="34.84" gradientTransform="translate(-0.04 -0.2) rotate(0.01)" xlink:href="#linear-gradient-7"/><linearGradient id="linear-gradient-39" x1="5.9" y1="23.63" x2="23.44" y2="30.72" gradientTransform="translate(39.5 0.25) rotate(68.79)" xlink:href="#linear-gradient-7"/><linearGradient id="linear-gradient-40" x1="9.46" y1="17.99" x2="26.37" y2="29.26" gradientTransform="translate(-0.04 -0.2) rotate(0.01)" xlink:href="#linear-gradient-7"/><linearGradient id="linear-gradient-41" x1="16.92" y1="9.13" x2="30.72" y2="28.81" gradientTransform="translate(16.58 -10.89) rotate(34.59)" xlink:href="#linear-gradient-7"/><linearGradient id="linear-gradient-42" x1="21.08" y1="9.08" x2="34.1" y2="33.18" gradientTransform="translate(-0.04 -0.2) rotate(0.01)" xlink:href="#linear-gradient-7"/><linearGradient id="linear-gradient-43" x1="31.15" y1="11.27" x2="34.8" y2="33.13" gradientTransform="translate(-0.04 -0.2) rotate(0.01)" xlink:href="#linear-gradient-7"/><linearGradient id="linear-gradient-44" x1="27.3" y1="22.26" x2="35.37" y2="22.26" gradientTransform="matrix(0.96, 0.27, -0.27, 0.96, 7.26, -7.93)" xlink:href="#linear-gradient-7"/><linearGradient id="linear-gradient-45" x1="34.81" y1="21.32" x2="41.38" y2="21.32" xlink:href="#linear-gradient"/><linearGradient id="linear-gradient-46" x1="23.55" y1="5.21" x2="34.34" y2="33" gradientTransform="translate(8.84 -9.23) rotate(20.66)" xlink:href="#linear-gradient-7"/><linearGradient id="linear-gradient-47" x1="27.43" y1="3.12" x2="33.79" y2="29.8" gradientTransform="translate(-0.04 -0.2) rotate(0.01)" xlink:href="#linear-gradient-7"/><linearGradient id="linear-gradient-48" x1="35.1" y1="35.75" x2="43.31" y2="4.7" gradientTransform="translate(47.28 -24.3) rotate(74.52)" xlink:href="#linear-gradient"/><linearGradient id="linear-gradient-49" x1="34.94" y1="35.2" x2="46.31" y2="7.12" xlink:href="#linear-gradient"/><linearGradient id="linear-gradient-50" x1="35.18" y1="34.91" x2="47.7" y2="14.52" xlink:href="#linear-gradient"/><linearGradient id="linear-gradient-51" x1="34.68" y1="24.62" x2="47.67" y2="24.62" xlink:href="#linear-gradient"/><linearGradient id="linear-gradient-52" x1="36.76" y1="34.2" x2="55.15" y2="10.6" gradientTransform="translate(32.97 -27.22) rotate(49.34)" xlink:href="#linear-gradient"/><linearGradient id="linear-gradient-53" x1="35.02" y1="35.3" x2="56.79" y2="15.19" gradientTransform="translate(28.64 -25.46) rotate(42.42)" xlink:href="#linear-gradient"/><linearGradient id="linear-gradient-54" x1="34.94" y1="35.26" x2="43.35" y2="27.54" gradientTransform="matrix(0.74, 0.67, -0.67, 0.74, 31, -18.71)" xlink:href="#linear-gradient"/><linearGradient id="linear-gradient-55" x1="35.12" y1="35.14" x2="47.84" y2="28.93" gradientTransform="matrix(0.9, 0.44, -0.44, 0.9, 18.03, -15.47)" xlink:href="#linear-gradient"/><linearGradient id="linear-gradient-56" x1="34.92" y1="36.19" x2="44.18" y2="36.19" gradientTransform="matrix(0.22, 0.97, -0.97, 0.22, 65.94, -10.64)" xlink:href="#linear-gradient"/><linearGradient id="linear-gradient-57" x1="35.28" y1="35.15" x2="49.46" y2="36.23" gradientTransform="translate(75.98 -10.51) rotate(85.75)" xlink:href="#linear-gradient"/><linearGradient id="linear-gradient-58" x1="35" y1="35.12" x2="50.09" y2="31.75" gradientTransform="translate(8.3 -9.44) rotate(12.74)" xlink:href="#linear-gradient"/><linearGradient id="linear-gradient-59" x1="35.24" y1="35.22" x2="41.65" y2="20.26" gradientTransform="translate(46.91 -19.96) rotate(65.36)" xlink:href="#linear-gradient"/><linearGradient id="linear-gradient-60" x1="35.79" y1="35.86" x2="53.7" y2="44.82" xlink:href="#linear-gradient"/><linearGradient id="linear-gradient-61" x1="35.44" y1="35.27" x2="62.25" y2="38.84" gradientTransform="matrix(0.14, 0.99, -0.99, 0.14, 79.92, -17.52)" xlink:href="#linear-gradient"/><linearGradient id="linear-gradient-62" x1="35.46" y1="35.42" x2="65.06" y2="42.62" xlink:href="#linear-gradient"/><linearGradient id="linear-gradient-63" x1="35.24" y1="35.41" x2="60.6" y2="53.68" gradientTransform="translate(56.39 -20.96) rotate(53.96)" xlink:href="#linear-gradient"/><linearGradient id="linear-gradient-64" x1="35.04" y1="35.51" x2="57.66" y2="56.05" gradientTransform="matrix(0.68, 0.73, -0.73, 0.68, 48.94, -19.93)" xlink:href="#linear-gradient"/><linearGradient id="linear-gradient-65" x1="35.16" y1="35.48" x2="54" y2="55.66" gradientTransform="matrix(0.74, 0.68, -0.68, 0.74, 43.24, -18.62)" xlink:href="#linear-gradient"/><linearGradient id="linear-gradient-66" x1="35.6" y1="38.99" x2="38.46" y2="61.49" xlink:href="#linear-gradient"/><linearGradient id="linear-gradient-67" x1="35.03" y1="35.18" x2="52.16" y2="59.96" xlink:href="#linear-gradient"/><linearGradient id="linear-gradient-68" x1="35.79" y1="36.54" x2="47.21" y2="63.51" gradientTransform="matrix(0.92, 0.4, -0.4, 0.92, 23.52, -12.64)" xlink:href="#linear-gradient"/><linearGradient id="linear-gradient-69" x1="36.94" y1="44.94" x2="43.02" y2="65.39" gradientTransform="translate(12.92 -7.8) rotate(13.37)" xlink:href="#linear-gradient"/><linearGradient id="linear-gradient-70" x1="34.64" y1="40.87" x2="38.35" y2="40.87" xlink:href="#linear-gradient"/><linearGradient id="linear-gradient-71" x1="35.2" y1="36.2" x2="36.18" y2="65.6" gradientTransform="translate(2.23 -1.7) rotate(2.48)" xlink:href="#linear-gradient"/><linearGradient id="linear-gradient-72" x1="31.78" y1="63.54" x2="33.73" y2="45.81" gradientTransform="matrix(0.12, 0.99, -0.99, 0.12, 79.22, 11.18)" xlink:href="#linear-gradient-7"/><linearGradient id="linear-gradient-73" x1="27.53" y1="45.05" x2="35.36" y2="45.05" gradientTransform="translate(-0.04 -0.2) rotate(0.01)" xlink:href="#linear-gradient-7"/><linearGradient id="linear-gradient-74" x1="21.74" y1="61.09" x2="34.66" y2="35.59" gradientTransform="translate(-0.04 -0.2) rotate(0.01)" xlink:href="#linear-gradient-7"/><linearGradient id="linear-gradient-75" x1="28.42" y1="64.79" x2="34.59" y2="36.46" gradientTransform="matrix(0.22, 0.98, -0.98, 0.22, 74.09, 8.79)" xlink:href="#linear-gradient-7"/><linearGradient id="linear-gradient-76" x1="24.47" y1="63.93" x2="34.43" y2="36.68" gradientTransform="translate(67.05 5.84) rotate(70.05)" xlink:href="#linear-gradient-7"/><linearGradient id="linear-gradient-77" x1="17.51" y1="60.49" x2="34.32" y2="36.24" gradientTransform="translate(-0.04 -0.2) rotate(0.01)" xlink:href="#linear-gradient-7"/><linearGradient id="linear-gradient-78" x1="12.88" y1="51.97" x2="33.04" y2="36.32" gradientTransform="translate(31.07 -4.89) rotate(36.81)" xlink:href="#linear-gradient-7"/><linearGradient id="linear-gradient-79" x1="7.99" y1="49.59" x2="32.29" y2="36.53" gradientTransform="translate(-0.04 -0.2) rotate(0.01)" xlink:href="#linear-gradient-7"/><linearGradient id="linear-gradient-80" x1="35.16" y1="35.19" x2="63.58" y2="32.76" xlink:href="#linear-gradient"/><linearGradient id="linear-gradient-81" x1="35.07" y1="35.3" x2="61.93" y2="29.66" gradientTransform="translate(7.19 -9.37) rotate(11.25)" xlink:href="#linear-gradient"/><linearGradient id="linear-gradient-82" x1="34.59" y1="35.13" x2="59.27" y2="49.67" xlink:href="#linear-gradient"/><linearGradient id="linear-gradient-83" x1="35.52" y1="34.99" x2="58.88" y2="23.91" gradientTransform="translate(16.68 -18.4) rotate(25.1)" xlink:href="#linear-gradient"/><linearGradient id="linear-gradient-84" x1="35.26" y1="34.95" x2="49.69" y2="21.7" xlink:href="#linear-gradient"/><linearGradient id="linear-gradient-85" x1="36.13" y1="16.09" x2="34.71" y2="30.41" gradientTransform="translate(60.42 -9.84) rotate(88.86)" xlink:href="#linear-gradient-7"/><linearGradient id="linear-gradient-86" x1="35.09" y1="35.27" x2="42.38" y2="42.93" gradientTransform="translate(38.21 -16.45) rotate(43.39)" xlink:href="#linear-gradient"/><linearGradient id="linear-gradient-87" x1="34.8" y1="34.9" x2="48.62" y2="58.08" gradientTransform="translate(30.07 -15.13) rotate(30.59)" xlink:href="#linear-gradient"/><linearGradient id="linear-gradient-88" x1="34" y1="41.39" x2="34.47" y2="34.9" gradientTransform="translate(-0.04 -0.2) rotate(0.01)" xlink:href="#linear-gradient-7"/></defs><g id="Layer_2" data-name="Layer 2"><g id="Layer_1-2" data-name="Layer 1"><path d="M98.27,11.28,97,12.68a9.53,9.53,0,0,0-7.07-2.85c-3.91,0-6.51,2.15-6.51,5.36s1.81,4.74,7.17,6.37c5.62,1.71,8.61,3.69,8.61,8.83S95.32,39,89.52,39a13.05,13.05,0,0,1-9.41-3.73l1.28-1.36a11,11,0,0,0,8.09,3.25c4.44,0,7.6-2.51,7.6-6.72,0-3.87-1.89-5.45-7.34-7.12-6.06-1.85-8.43-3.92-8.43-8.09S84.73,8,89.87,8A11.47,11.47,0,0,1,98.27,11.28Z"/><path d="M131.84,22.18V38.52h-2V22.44c0-3.86-1.54-5.62-4.13-5.62-2.86,0-5,2.06-6.81,5V38.52h-2V22.44c0-3.87-1.53-5.63-4.13-5.63-2.85,0-5,2.07-6.81,5V38.52h-2V15.58h1.76l.18,4c1.76-2.68,4.21-4.48,7.2-4.48s5,1.75,5.63,4.7c1.8-2.77,4.3-4.7,7.34-4.7C129.69,15.15,131.84,17.78,131.84,22.18Z"/><path d="M153.46,37.56,153,39c-1.88-.49-3-1.54-3.2-4a8.06,8.06,0,0,1-7.25,4c-4.4,0-7-2.77-7-6.86,0-4.74,3.64-7.38,9.31-7.38h4.7V22.4c0-3.74-1.5-5.49-5.5-5.49a17.26,17.26,0,0,0-6.24,1.36l-.56-1.63a18.73,18.73,0,0,1,7-1.49c5.1,0,7.34,2.5,7.34,7.12V33.56C151.53,36.28,152.19,37.07,153.46,37.56Zm-4-4.61V26.4h-4.39c-4.7,0-7.47,1.84-7.47,5.71,0,3.3,1.94,5.18,5.14,5.18S148.05,35.71,149.5,33Z"/><path d="M168.32,15.41l-.4,1.89a7,7,0,0,0-2-.26c-3.3,0-5.05,2.37-6.33,7.16V38.52h-2V15.59h1.76l.13,5.31c1.23-3.86,3.29-5.75,6.59-5.75A8,8,0,0,1,168.32,15.41Z"/><path d="M180.43,39c-3.29,0-5.36-2-5.35-5.88V17.3h-3.83V15.59h3.83V10l2-.22v5.8h6.07l-.27,1.71h-5.8V33c0,2.81,1.15,4.22,3.56,4.22a7.23,7.23,0,0,0,3.7-1.06l.83,1.45A8.42,8.42,0,0,1,180.43,39Z"/><path d="M216.17,38.53,201.27,10.8c.14,1.94.27,4.53.27,9.85V38.53h-2V8.47h2.69L217.14,36.2c-.09-1.45-.27-4.83-.27-8.78v-19h2V38.53Z"/><path d="M241.79,37.57,241.31,39c-1.9-.48-3-1.53-3.21-4a8.06,8.06,0,0,1-7.25,4c-4.4,0-7-2.76-7-6.85,0-4.74,3.64-7.38,9.31-7.38h4.71V22.41c0-3.74-1.5-5.5-5.49-5.5a17.44,17.44,0,0,0-6.25,1.36l-.57-1.62a18.47,18.47,0,0,1,7-1.49c5.1,0,7.34,2.5,7.34,7.12V33.57C239.86,36.29,240.52,37.08,241.79,37.57ZM237.84,33V26.4h-4.4c-4.7,0-7.47,1.85-7.47,5.72,0,3.29,1.94,5.18,5.14,5.18S236.38,35.72,237.84,33Z"/><path d="M252.56,39c-3.3,0-5.37-2-5.37-5.89V17.31h-3.82V15.6h3.82V10l2-.22v5.8h6.06L255,17.31h-5.79V33c0,2.81,1.15,4.22,3.56,4.22a7.2,7.2,0,0,0,3.69-1.06l.84,1.45A8.52,8.52,0,0,1,252.56,39Z"/><path d="M263.59,7.38A1.59,1.59,0,1,1,262,5.84,1.52,1.52,0,0,1,263.59,7.38ZM261,38.53V15.6h2V38.53Z"/><path d="M286.22,27c0,7.52-3.65,12-9.54,12s-9.49-4.53-9.49-11.91,3.69-11.95,9.53-11.95S286.22,19.42,286.22,27Zm-16.92.13c0,6.59,2.77,10.15,7.38,10.15s7.43-3.51,7.43-10.28-2.73-10.06-7.39-10.06S269.3,20.34,269.3,27.11Z"/><path d="M306.56,22.2V38.54h-2V22.46c0-3.92-1.58-5.63-4.57-5.63-3.34,0-5.58,2.07-7.56,5V38.54h-2V15.6h1.76l.18,4.09c1.93-2.68,4.52-4.53,7.95-4.53C304.45,15.16,306.56,17.71,306.56,22.2Z"/><path d="M88.36,49.55l-.9,1a4.12,4.12,0,0,0-2.86-1.14c-1.34,0-2.35.65-2.35,1.87s.53,1.65,2.81,2.35c2.07.62,3.7,1.43,3.7,3.79s-1.65,3.72-4.42,3.72a5.83,5.83,0,0,1-4.23-1.61l.93-1a4.48,4.48,0,0,0,3.28,1.32c1.54,0,2.79-.78,2.79-2.34,0-1.3-.62-1.87-2.79-2.53-2.47-.75-3.7-1.68-3.7-3.61s1.61-3.24,3.91-3.24A5.17,5.17,0,0,1,88.36,49.55Z"/><path d="M108.28,60.93V48.32h1.59V60.93Z"/><path d="M137.05,60.93l-5.31-10.87c.09,1,.22,2.46.22,4.79v6.08h-1.49V48.32h2.08l5.35,10.89c0-.35-.2-2.27-.2-3.83V48.32h1.48V60.93Z"/><path d="M168.09,49.46l-.94,1a4.06,4.06,0,0,0-2.78-1c-1.86,0-3.73,1.42-3.73,5.19s1.31,5.22,3.58,5.22a4.81,4.81,0,0,0,2.45-.6V55.29h-2.29L164.2,54h4.05v6.07a7.76,7.76,0,0,1-4.14,1.1C161,61.15,159,59,159,54.61s2.58-6.51,5.37-6.51A5.35,5.35,0,0,1,168.09,49.46Z"/><path d="M189,57.71l-1,3.22h-1.61l4.08-12.61h2l4.07,12.62h-1.69l-1-3.22Zm2.46-8.07-2.07,6.77h4.12Z"/><path d="M223.11,52.19c0,2.88-2.07,4.06-4.84,4.06h-1.65v4.69H215V48.33h3.23C221.27,48.33,223.11,49.56,223.11,52.19Zm-1.69,0c0-1.94-1.23-2.64-3.17-2.64h-1.63V55h1.59C220.14,55,221.42,54.4,221.42,52.21Z"/><path d="M252.2,54.65c0,4.16-2.13,6.51-5.28,6.51s-5.28-2.27-5.28-6.49,2.16-6.56,5.28-6.56S252.2,50.4,252.2,54.65Zm-8.87,0c0,3.67,1.46,5.17,3.59,5.17s3.59-1.5,3.59-5.19-1.38-5.22-3.59-5.22S243.33,51,243.33,54.67Z"/><path d="M273.55,55.52v5.42H272V48.33h3.25c3.11,0,4.72,1.21,4.72,3.54,0,1.8-.95,2.84-2.74,3.37l3.4,5.7h-1.88l-3.08-5.42Zm4.71-3.65c0-1.59-.92-2.29-3.06-2.29h-1.65v4.71h1.85C277.21,54.29,278.26,53.61,278.26,51.87Z"/><path d="M301.39,49.62v4.25h4.31v1.28h-4.31v4.51h5.28V61h-6.86V48.33h6.73l-.18,1.29Z"/><polygon class="cls-1" points="34.33 35.04 36.14 1.11 36.9 1.14 35.08 35.07 34.33 35.04"/><rect class="cls-2" x="21.01" y="18.37" width="32.77" height="0.75" transform="translate(13.31 52.95) rotate(-81.48)"/><polygon class="cls-3" points="68.6 36.14 34.95 35.33 34.97 34.57 68.61 35.38 68.6 36.14"/><polygon class="cls-4" points="35.06 35.31 34.85 34.59 67.2 25.08 67.41 25.8 35.06 35.31"/><polygon class="cls-5" points="61.52 44.85 34.84 35.3 35.09 34.6 61.78 44.13 61.52 44.85"/><rect class="cls-6" x="41.37" y="32.76" width="0.75" height="20.77" transform="translate(-18.1 38.35) rotate(-41.36)"/><rect class="cls-7" x="30.33" y="19.25" width="0.76" height="17.19" transform="translate(-9.66 18.42) rotate(-29.06)"/><rect class="cls-8" x="31.99" y="25.08" width="33.18" height="0.76" transform="translate(-5.83 32.39) rotate(-34.92)"/><polygon class="cls-9" points="35.12 35.29 34.81 34.6 58.58 25.75 58.89 26.44 35.12 35.29"/><polygon class="cls-10" points="35.19 35.24 34.73 34.65 58.75 20.63 59.22 21.23 35.19 35.24"/><polygon class="cls-11" points="34.51 35.39 31.82 3.84 32.56 3.78 35.26 35.32 34.51 35.39"/><rect class="cls-12" x="25.14" y="22.86" width="0.76" height="19.68" transform="translate(-12.03 50.33) rotate(-77.19)"/><polygon class="cls-13" points="64.62 49.67 34.38 35.1 34.71 34.42 64.96 48.99 64.62 49.67"/><rect class="cls-14" x="39.45" y="33.83" width="0.75" height="22.06" transform="translate(-15.69 22.15) rotate(-26.16)"/><rect class="cls-15" x="19.36" y="41.9" width="19.05" height="0.76" transform="translate(-22.15 38.05) rotate(-50.93)"/><polygon class="cls-16" points="16.72 55.55 16.16 55.05 34.91 34.63 35.46 35.14 16.72 55.55"/><polygon class="cls-17" points="35.39 58.57 34.63 58.56 34.91 34.63 35.66 34.63 35.39 58.57"/><polygon class="cls-18" points="11.05 58.51 10.53 57.96 34.92 34.61 35.44 35.16 11.05 58.51"/><rect class="cls-19" x="21.18" y="36.86" width="14.32" height="0.75" transform="translate(-10.59 11.28) rotate(-19.03)"/><rect class="cls-20" x="9.83" y="37.47" width="25.64" height="0.75" transform="translate(-8.23 6.35) rotate(-13.54)"/><rect class="cls-21" x="12.77" y="35.18" width="22.28" height="0.75" transform="translate(-2.08 1.49) rotate(-3.42)"/><polygon class="cls-22" points="34.79 35.28 4.25 34.7 4.26 33.95 34.81 34.53 34.79 35.28"/><rect class="cls-23" x="23.53" y="18.68" width="0.76" height="23.84" transform="translate(-13.26 41.87) rotate(-68.85)"/><rect class="cls-24" x="31.55" y="27.72" width="0.75" height="8.67" transform="translate(-13.32 32.51) rotate(-45.68)"/><rect class="cls-25" x="33.12" y="31.92" width="5.99" height="0.75" transform="matrix(0.36, -0.93, 0.93, 0.36, -7, 54.4)"/><rect class="cls-26" x="28.9" y="28.57" width="0.76" height="11.61" transform="translate(-8.46 59.17) rotate(-82.89)"/><rect class="cls-27" x="24.82" y="38.49" width="11.61" height="0.75" transform="translate(-17.47 27.24) rotate(-38.18)"/><rect class="cls-28" x="26.89" y="18.66" width="0.75" height="20.09" transform="translate(-12.22 31.54) rotate(-50.57)"/><rect class="cls-29" x="26.9" y="12.51" width="0.75" height="25.25" transform="translate(-9.69 22.07) rotate(-37.93)"/><rect class="cls-30" x="24.45" y="7.07" width="0.76" height="31.73" transform="translate(-8.94 21.34) rotate(-40.03)"/><polygon class="cls-31" points="34.78 35.28 8.12 20.66 8.47 20 35.14 34.62 34.78 35.28"/><polygon class="cls-32" points="34.7 35.23 9.93 12.91 10.44 12.35 35.21 34.67 34.7 35.23"/><polygon class="cls-33" points="18.44 48.35 17.97 47.76 34.73 34.65 35.19 35.24 18.44 48.35"/><rect class="cls-34" x="7.11" y="40.02" width="28.91" height="0.75" transform="translate(-13.64 11.12) rotate(-22.16)"/><polygon class="cls-35" points="3.04 43.05 2.86 42.31 34.87 34.58 35.05 35.31 3.04 43.05"/><rect class="cls-36" x="1.15" y="36.25" width="33.89" height="0.75" transform="translate(-3.55 1.98) rotate(-5.71)"/><rect class="cls-37" x="18.37" y="16.37" width="0.75" height="32.72" transform="translate(-16.22 46.88) rotate(-82.22)"/><polygon class="cls-38" points="34.87 35.31 5.47 27.94 5.66 27.21 35.05 34.58 34.87 35.31"/><rect class="cls-39" x="19.02" y="12.22" width="0.75" height="33.38" transform="translate(-14.57 36.53) rotate(-68.78)"/><polygon class="cls-40" points="34.75 35.26 7.96 17.15 8.39 16.53 35.17 34.63 34.75 35.26"/><rect class="cls-41" x="25.06" y="4.38" width="0.76" height="33.53" transform="matrix(0.82, -0.57, 0.57, 0.82, -7.51, 18.18)"/><polygon class="cls-42" points="34.63 35.13 19.93 7.34 20.6 6.99 35.29 34.77 34.63 35.13"/><polygon class="cls-43" points="34.58 35.01 30.76 10.51 31.5 10.39 35.33 34.89 34.58 35.01"/><rect class="cls-44" x="30.91" y="8.67" width="0.75" height="26.79" transform="translate(-4.85 9.42) rotate(-15.9)"/><polygon class="cls-45" points="34.77 34.92 40.6 7.17 41.34 7.32 35.5 35.08 34.77 34.92"/><rect class="cls-46" x="28.82" y="3.32" width="0.75" height="32.68" transform="translate(-5.06 11.56) rotate(-20.65)"/><polygon class="cls-47" points="34.59 35.03 26.95 2.46 27.68 2.28 35.33 34.86 34.59 35.03"/><rect class="cls-48" x="22.35" y="18.48" width="34.24" height="0.76" transform="translate(10.75 51.86) rotate(-74.51)"/><polygon class="cls-49" points="35.3 35.1 34.61 34.8 46.63 4.93 47.33 5.23 35.3 35.1"/><polygon class="cls-50" points="35.28 35.15 34.64 34.75 51.77 6.97 52.41 7.36 35.28 35.15"/><polygon class="cls-51" points="35.28 35.14 34.64 34.76 46.98 13.72 47.63 14.1 35.28 35.14"/><rect class="cls-52" x="29.12" y="21.86" width="33.52" height="0.75" transform="translate(-0.88 42.55) rotate(-49.33)"/><rect class="cls-53" x="30.78" y="23.76" width="32.14" height="0.76" transform="matrix(0.74, -0.67, 0.67, 0.74, -4.02, 37.92)"/><rect class="cls-54" x="33.37" y="30.45" width="12.27" height="0.75" transform="translate(-10.47 34.47) rotate(-42.14)"/><rect class="cls-55" x="34.16" y="31.09" width="16.07" height="0.76" transform="translate(-9.51 21.6) rotate(-25.9)"/><rect class="cls-56" x="39.13" y="31.33" width="0.75" height="9.33" transform="translate(-4.4 66.46) rotate(-77.09)"/><rect class="cls-57" x="43.14" y="27" width="0.75" height="17.17" transform="translate(4.81 76.35) rotate(-85.75)"/><rect class="cls-58" x="34.69" y="32.19" width="21.69" height="0.75" transform="translate(-6.06 10.84) rotate(-12.74)"/><rect class="cls-59" x="29.54" y="26.14" width="18.59" height="0.76" transform="translate(-1.46 50.76) rotate(-65.36)"/><polygon class="cls-60" points="55.83 46.46 34.78 35.28 35.14 34.62 56.18 45.79 55.83 46.46"/><rect class="cls-61" x="49.5" y="21.94" width="0.75" height="30.12" transform="translate(6.42 81.37) rotate(-82.16)"/><polygon class="cls-62" points="67.21 43.52 34.87 35.31 35.05 34.58 67.39 42.79 67.21 43.52"/><rect class="cls-63" x="48.19" y="28.02" width="0.75" height="33.66" transform="translate(-16.28 57.73) rotate(-53.96)"/><rect class="cls-64" x="46.81" y="29.64" width="0.76" height="33.5" transform="translate(-18.93 49.15) rotate(-46.9)"/><rect class="cls-65" x="44.85" y="30.94" width="0.75" height="30.36" transform="translate(-19.28 42.77) rotate(-42.59)"/><polygon class="cls-66" points="38.48 63.94 34.58 35 35.33 34.9 39.22 63.83 38.48 63.94"/><polygon class="cls-67" points="53.08 61.83 34.65 35.16 35.27 34.74 53.7 61.41 53.08 61.83"/><rect class="cls-68" x="41.17" y="33.57" width="0.75" height="32.96" transform="translate(-16.55 20.79) rotate(-23.57)"/><rect class="cls-69" x="38.47" y="34.49" width="0.76" height="33.66" transform="translate(-10.81 10.37) rotate(-13.37)"/><polygon class="cls-70" points="37.57 46.48 34.59 35.03 35.33 34.86 38.3 46.31 37.57 46.48"/><rect class="cls-71" x="35.3" y="34.86" width="0.76" height="33.66" transform="translate(-2.2 1.59) rotate(-2.48)"/><rect class="cls-72" x="17.98" y="49.67" width="30.41" height="0.75" transform="translate(-20.39 77.17) rotate(-83.3)"/><polygon class="cls-73" points="28.19 54.88 27.48 54.63 34.6 34.82 35.31 35.08 28.19 54.88"/><polygon class="cls-74" points="20.6 63.63 19.93 63.29 34.62 34.77 35.29 35.12 20.6 63.63"/><rect class="cls-75" x="15.26" y="50.31" width="32.28" height="0.75" transform="translate(-24.97 70.12) rotate(-77.25)"/><rect class="cls-76" x="12.43" y="50.31" width="33.52" height="0.76" transform="translate(-28.42 60.83) rotate(-70.04)"/><polygon class="cls-77" points="16.23 62.83 15.61 62.4 34.65 34.74 35.27 35.16 16.23 62.83"/><rect class="cls-78" x="7.1" y="43.84" width="30.94" height="0.75" transform="translate(-21.99 22.33) rotate(-36.8)"/><polygon class="cls-79" points="5.74 50.93 5.38 50.27 34.78 34.62 35.13 35.28 5.74 50.93"/><polygon class="cls-80" points="34.98 35.32 34.93 34.57 66.64 31.98 66.69 32.73 34.98 35.32"/><rect class="cls-81" x="34.66" y="31.55" width="30.99" height="0.75" transform="translate(-5.26 10.39) rotate(-11.24)"/><polygon class="cls-82" points="60.68 51.01 34.76 35.27 35.16 34.63 61.07 50.37 60.68 51.01"/><rect class="cls-83" x="33.47" y="27.9" width="31.5" height="0.76" transform="translate(-7.35 23.54) rotate(-25.09)"/><polygon class="cls-84" points="35.22 35.23 34.7 34.67 51.3 19.51 51.81 20.07 35.22 35.23"/><rect class="cls-85" x="25.82" y="25.44" width="18.56" height="0.76" transform="translate(8.59 60.4) rotate(-88.86)"/><rect class="cls-86" x="39.13" y="33.14" width="0.76" height="13.24" transform="translate(-16.52 38) rotate(-43.38)"/><rect class="cls-87" x="41.94" y="32.94" width="0.75" height="28.91" transform="translate(-18.23 28.12) rotate(-30.59)"/><path class="cls-88" d="M58.12,9.53a1.31,1.31,0,1,1-1.31-1.28A1.25,1.25,0,0,1,58.12,9.53Z"/><path class="cls-88" d="M60,13.33a1.31,1.31,0,1,1-1.31-1.27A1.24,1.24,0,0,1,60,13.33Z"/><path class="cls-88" d="M48.28,5.08A1.31,1.31,0,1,1,47,3.81,1.26,1.26,0,0,1,48.28,5.08Z"/><path class="cls-88" d="M53.39,7.17a1.31,1.31,0,1,1-1.3-1.28A1.25,1.25,0,0,1,53.39,7.17Z"/><path class="cls-88" d="M24.74,4.37a1.31,1.31,0,0,1-2.61,0,1.31,1.31,0,0,1,2.61,0Z"/><path class="cls-88" d="M4.26,42.68A1.26,1.26,0,0,1,3,44a1.27,1.27,0,1,1,0-2.54A1.25,1.25,0,0,1,4.26,42.68Z"/><path class="cls-88" d="M17.22,62.61a1.31,1.31,0,1,1-1.3-1.27A1.25,1.25,0,0,1,17.22,62.61Z"/><path class="cls-88" d="M37.87,1.27a1.31,1.31,0,0,1-2.62,0,1.31,1.31,0,0,1,2.62,0Z"/><path class="cls-88" d="M41.14,2.54a1.31,1.31,0,0,1-2.62,0,1.31,1.31,0,0,1,2.62,0Z"/><path class="cls-88" d="M33.5,3.81a1.31,1.31,0,1,1-1.31-1.27A1.25,1.25,0,0,1,33.5,3.81Z"/><path class="cls-88" d="M28.62,2.37a1.31,1.31,0,0,1-2.61,0,1.31,1.31,0,0,1,2.61,0Z"/><path class="cls-88" d="M45.36,2.54a1.31,1.31,0,0,1-2.61,0,1.31,1.31,0,0,1,2.61,0Z"/><path class="cls-88" d="M63.49,16a1.31,1.31,0,1,1-1.31-1.27A1.25,1.25,0,0,1,63.49,16Z"/><path class="cls-88" d="M63.48,54.76a1.31,1.31,0,0,1-2.61,0,1.31,1.31,0,0,1,2.61,0Z"/><path class="cls-88" d="M60.72,57.84a1.31,1.31,0,1,1-1.3-1.27A1.25,1.25,0,0,1,60.72,57.84Z"/><path class="cls-88" d="M52.87,19.79a1.31,1.31,0,1,1-1.31-1.27A1.25,1.25,0,0,1,52.87,19.79Z"/><path class="cls-88" d="M32.44,10.45a1.31,1.31,0,0,1-2.61,0,1.31,1.31,0,0,1,2.61,0Z"/><path class="cls-88" d="M66.66,28.91a1.31,1.31,0,1,1-1.3-1.27A1.24,1.24,0,0,1,66.66,28.91Z"/><path class="cls-88" d="M68.61,25.42a1.31,1.31,0,1,1-1.31-1.27A1.25,1.25,0,0,1,68.61,25.42Z"/><path class="cls-88" d="M21.58,7.35a1.31,1.31,0,1,1-1.31-1.28A1.25,1.25,0,0,1,21.58,7.35Z"/><path class="cls-88" d="M9.6,20.33A1.25,1.25,0,0,1,8.3,21.6a1.27,1.27,0,1,1,0-2.54A1.25,1.25,0,0,1,9.6,20.33Z"/><path class="cls-88" d="M20.82,15.17a1.31,1.31,0,1,1-1.31-1.27A1.25,1.25,0,0,1,20.82,15.17Z"/><path class="cls-88" d="M11.49,12.63a1.25,1.25,0,0,1-1.3,1.27,1.27,1.27,0,1,1,0-2.54A1.25,1.25,0,0,1,11.49,12.63Z"/><path class="cls-88" d="M9.48,16.84a1.25,1.25,0,0,1-1.3,1.27,1.27,1.27,0,1,1,0-2.54A1.25,1.25,0,0,1,9.48,16.84Z"/><path class="cls-88" d="M32.73,65.16a1.31,1.31,0,1,1-1.31-1.27A1.25,1.25,0,0,1,32.73,65.16Z"/><path class="cls-88" d="M37.57,67.7a1.31,1.31,0,1,1-1.31-1.27A1.25,1.25,0,0,1,37.57,67.7Z"/><path class="cls-88" d="M44.05,67.7a1.31,1.31,0,1,1-1.31-1.27A1.25,1.25,0,0,1,44.05,67.7Z"/><path class="cls-88" d="M49.44,65.16a1.31,1.31,0,1,1-1.31-1.27A1.25,1.25,0,0,1,49.44,65.16Z"/><path class="cls-88" d="M30.13,29.08a1.31,1.31,0,1,1-1.26-1.32A1.25,1.25,0,0,1,30.13,29.08Z"/><path class="cls-88" d="M45.35,44.57a1.31,1.31,0,1,1-1.3-1.27A1.25,1.25,0,0,1,45.35,44.57Z"/><path class="cls-88" d="M53.39,36.22A1.31,1.31,0,1,1,52.08,35,1.25,1.25,0,0,1,53.39,36.22Z"/><path class="cls-88" d="M22.88,39.57a1.31,1.31,0,1,1-1.31-1.27A1.25,1.25,0,0,1,22.88,39.57Z"/><path class="cls-88" d="M56.8,57.3A1.31,1.31,0,1,1,55.5,56,1.24,1.24,0,0,1,56.8,57.3Z"/><path class="cls-88" d="M54.69,61.62a1.31,1.31,0,1,1-1.31-1.27A1.24,1.24,0,0,1,54.69,61.62Z"/><path class="cls-88" d="M68.61,43.15a1.31,1.31,0,1,1-1.31-1.27A1.25,1.25,0,0,1,68.61,43.15Z"/><path class="cls-88" d="M63,44.49a1.31,1.31,0,1,1-1.31-1.27A1.25,1.25,0,0,1,63,44.49Z"/><path class="cls-88" d="M46,54.76a1.31,1.31,0,1,1-1.31-1.28A1.25,1.25,0,0,1,46,54.76Z"/><path class="cls-88" d="M36.27,58.24A1.31,1.31,0,1,1,35,57,1.25,1.25,0,0,1,36.27,58.24Z"/><path class="cls-88" d="M5.57,34.32a1.26,1.26,0,0,1-1.31,1.27,1.27,1.27,0,1,1,0-2.54A1.26,1.26,0,0,1,5.57,34.32Z"/><path class="cls-88" d="M48.61,13.91a1.31,1.31,0,1,1-1.3-1.28A1.25,1.25,0,0,1,48.61,13.91Z"/><path class="cls-88" d="M60,26.1a1.31,1.31,0,1,1-1.31-1.27A1.25,1.25,0,0,1,60,26.1Z"/><path class="cls-88" d="M44.05,18.12a1.31,1.31,0,1,1-1.31-1.27A1.25,1.25,0,0,1,44.05,18.12Z"/><path class="cls-88" d="M20.82,22.33a1.26,1.26,0,0,1-1.31,1.27,1.27,1.27,0,1,1,1.31-1.27Z"/><path class="cls-88" d="M50.75,28a1.31,1.31,0,1,1-1.31-1.27A1.25,1.25,0,0,1,50.75,28Z"/><path class="cls-88" d="M36.56,15.58a1.31,1.31,0,1,1-1.31-1.28A1.26,1.26,0,0,1,36.56,15.58Z"/><path class="cls-88" d="M28.92,9.18a1.31,1.31,0,1,1-1.31-1.27A1.25,1.25,0,0,1,28.92,9.18Z"/><path class="cls-88" d="M66.1,39.06a1.31,1.31,0,1,1-1.31-1.28A1.25,1.25,0,0,1,66.1,39.06Z"/><path class="cls-88" d="M29.19,66.43a1.31,1.31,0,1,1-1.3-1.27A1.25,1.25,0,0,1,29.19,66.43Z"/><path class="cls-88" d="M21.57,63.46a1.31,1.31,0,1,1-1.31-1.27A1.25,1.25,0,0,1,21.57,63.46Z"/><path class="cls-88" d="M17.75,55.3A1.31,1.31,0,1,1,16.44,54,1.25,1.25,0,0,1,17.75,55.3Z"/><path class="cls-88" d="M14.1,36.22A1.31,1.31,0,1,1,12.79,35,1.25,1.25,0,0,1,14.1,36.22Z"/><path class="cls-88" d="M9.48,45.84a1.25,1.25,0,0,1-1.31,1.27,1.27,1.27,0,1,1,0-2.54A1.25,1.25,0,0,1,9.48,45.84Z"/><path class="cls-88" d="M15.92,10.79a1.31,1.31,0,1,1-1.3-1.27A1.24,1.24,0,0,1,15.92,10.79Z"/><path class="cls-88" d="M60.29,20.93a1.31,1.31,0,0,1-2.61,0,1.31,1.31,0,0,1,2.61,0Z"/><path class="cls-88" d="M45.35,26.71a1.31,1.31,0,1,1-1.3-1.27A1.24,1.24,0,0,1,45.35,26.71Z"/><path class="cls-88" d="M27.84,20.33a1.31,1.31,0,1,1-1.31-1.27A1.25,1.25,0,0,1,27.84,20.33Z"/><path class="cls-88" d="M49.92,51a1.31,1.31,0,1,1-1.31-1.28A1.25,1.25,0,0,1,49.92,51Z"/><path class="cls-88" d="M24.18,49.67a1.31,1.31,0,1,1-1.3-1.27A1.25,1.25,0,0,1,24.18,49.67Z"/><path class="cls-88" d="M14.1,26.31A1.31,1.31,0,1,1,12.79,25,1.25,1.25,0,0,1,14.1,26.31Z"/><path class="cls-88" d="M45.35,37a1.31,1.31,0,1,1-1.3-1.27A1.25,1.25,0,0,1,45.35,37Z"/><path class="cls-88" d="M66.1,49.33a1.31,1.31,0,1,1-1.31-1.27A1.25,1.25,0,0,1,66.1,49.33Z"/><path class="cls-88" d="M69.91,35.6a1.31,1.31,0,1,1-1.3-1.27A1.25,1.25,0,0,1,69.91,35.6Z"/><path class="cls-88" d="M68,32.36a1.31,1.31,0,1,1-1.31-1.27A1.25,1.25,0,0,1,68,32.36Z"/><path class="cls-88" d="M64.79,21.61a1.31,1.31,0,1,1-1.3-1.28A1.25,1.25,0,0,1,64.79,21.61Z"/><path class="cls-88" d="M6.87,50.6a1.25,1.25,0,0,1-1.31,1.27,1.27,1.27,0,1,1,0-2.54A1.25,1.25,0,0,1,6.87,50.6Z"/><path class="cls-88" d="M11.49,53.48a1.25,1.25,0,0,1-1.31,1.27,1.27,1.27,0,1,1,0-2.54A1.26,1.26,0,0,1,11.49,53.48Z"/><path class="cls-88" d="M12.09,58.24a1.25,1.25,0,0,1-1.3,1.27,1.27,1.27,0,1,1,0-2.54A1.25,1.25,0,0,1,12.09,58.24Z"/><path class="cls-88" d="M24.73,66.43a1.31,1.31,0,1,1-1.31-1.28A1.25,1.25,0,0,1,24.73,66.43Z"/><path class="cls-88" d="M29.14,54.76a1.31,1.31,0,1,1-1.31-1.28A1.25,1.25,0,0,1,29.14,54.76Z"/><path class="cls-88" d="M19.51,48.06a1.31,1.31,0,1,1-1.3-1.27A1.25,1.25,0,0,1,19.51,48.06Z"/><path class="cls-88" d="M5.15,22.87a1.25,1.25,0,0,1-1.31,1.27,1.27,1.27,0,1,1,0-2.54A1.26,1.26,0,0,1,5.15,22.87Z"/><path class="cls-88" d="M6.87,27.58a1.25,1.25,0,0,1-1.3,1.26,1.27,1.27,0,1,1,0-2.53A1.25,1.25,0,0,1,6.87,27.58Z"/><path class="cls-88" d="M3.84,30.52a1.24,1.24,0,0,1-1.3,1.27,1.27,1.27,0,1,1,0-2.54A1.24,1.24,0,0,1,3.84,30.52Z"/><path class="cls-88" d="M2.61,38.3a1.24,1.24,0,0,1-1.3,1.27,1.27,1.27,0,1,1,0-2.54A1.25,1.25,0,0,1,2.61,38.3Z"/><path class="cls-88" d="M11.49,40.84a1.25,1.25,0,0,1-1.31,1.27,1.27,1.27,0,1,1,0-2.54A1.26,1.26,0,0,1,11.49,40.84Z"/><path class="cls-88" d="M17.23,30.52a1.31,1.31,0,1,1-1.31-1.27A1.25,1.25,0,0,1,17.23,30.52Z"/><path class="cls-88" d="M17.23,7.35a1.31,1.31,0,1,1-1.31-1.28A1.25,1.25,0,0,1,17.23,7.35Z"/><path class="cls-88" d="M27.86,42.67a1.31,1.31,0,1,1-.27-1.8A1.24,1.24,0,0,1,27.86,42.67Z"/><path class="cls-88" d="M38.71,45.5A1.3,1.3,0,1,1,37,45,1.24,1.24,0,0,1,38.71,45.5Z"/><path class="cls-88" d="M37.91,30.6a1.26,1.26,0,0,1-1.78-.41,1.27,1.27,0,1,1,2.14-1.38A1.26,1.26,0,0,1,37.91,30.6Z"/><path class="cls-88" d="M24.58,32.89a1.31,1.31,0,1,1-1.81-.27A1.24,1.24,0,0,1,24.58,32.89Z"/><path class="cls-88" d="M42.11,7.83a1.31,1.31,0,0,1-2.43-1,1.31,1.31,0,0,1,2.43,1Z"/><path class="cls-88" d="M57.4,29.93a1.31,1.31,0,0,1-2.56.51,1.31,1.31,0,0,1,2.56-.51Z"/><path class="cls-88" d="M57.2,46.64a1.25,1.25,0,0,1-1.7.66,1.27,1.27,0,1,1,1-2.34A1.24,1.24,0,0,1,57.2,46.64Z"/><path class="cls-88" d="M39.91,64.64a1.24,1.24,0,0,1-1.79.28,1.27,1.27,0,1,1,1.46-2.07A1.24,1.24,0,0,1,39.91,64.64Z"/><path class="cls-88" d="M61.85,51.56a1.31,1.31,0,1,1-.13-1.82A1.25,1.25,0,0,1,61.85,51.56Z"/><path class="cls-88" d="M51,60a1.31,1.31,0,1,1-1.12-1.43A1.25,1.25,0,0,1,51,60Z"/><polygon class="cls-89" points="35.09 35.3 33.91 42.35 33.17 42.21 34.35 35.16 35.09 35.3"/><path class="cls-88" d="M34.8,42a1.31,1.31,0,1,1-1.3-1.27A1.25,1.25,0,0,1,34.8,42Z"/></g></g></svg>