<svg viewBox="0 0 1200 1200" xmlns:xlink="http://www.w3.org/1999/xlink" xmlns="http://www.w3.org/2000/svg" id="Layer_1">
  <defs>
    <style>
      .cls-1 {
        fill: url(#linear-gradient);
      }

      .cls-2 {
        fill: #ed1d3b;
      }
    </style>
    <linearGradient gradientUnits="userSpaceOnUse" y2="601.48" x2="923.61" y1="601.48" x1="165.16" id="linear-gradient">
      <stop stop-color="#ff7d01" offset="0"></stop>
      <stop stop-color="#ed1d3b" offset="1"></stop>
    </linearGradient>
  </defs>
  <path d="M275.18,470.58c-.61-2.11-.95-4.33-.95-6.64,0-13.2,10.7-23.9,23.9-23.9s23.9,10.7,23.9,23.9-10.7,23.9-23.9,23.9c-2.25,0-4.41-.33-6.47-.91l-80.73,80.71-.03,247.55,146.87-146.87,28.05,28.05,122.63-122.72c-.73-2.29-1.12-4.73-1.12-7.26,0-13.27,10.76-24.02,24.02-24.02s24.02,10.76,24.02,24.02-10.76,24.02-24.02,24.02c-2.08,0-4.09-.29-6.01-.79l-139.06,139.11-28.1-28.1-80.32,80.24.11,168.33,171.65-171.7c-.59-2.09-.93-4.28-.93-6.56,0-13.27,10.76-24.02,24.02-24.02s24.02,10.76,24.02,24.02-10.76,24.02-24.02,24.02c-2.31,0-4.54-.35-6.66-.96l-132.75,132.76.28,129.82h97.42l180.5-180.52c-.66-2.2-1.02-4.52-1.02-6.93,0-13.27,10.76-24.02,24.02-24.02s24.02,10.76,24.02,24.02-10.76,24.02-24.02,24.02c-2.2,0-4.33-.32-6.35-.88l-94.68,94.68h165.96s108.34-108.34,108.34-108.34l16.42,16.42-52.05,52.02h89.95l27.67-27.61v-79.15l-143.07-143.07-78.71,78.77h-50.54l-181.6,181.7c.64,2.17,1,4.45,1,6.83,0,13.27-10.76,24.02-24.02,24.02s-24.02-10.76-24.02-24.02,10.76-24.02,24.02-24.02c2.24,0,4.4.33,6.46.9l188.59-188.65h50.49l119.42-119.42-44.86-44.86-80.49,80.49-54.63-54.63,63.26-63.26-147.67-147.85-167.69,167.9c.32,1.56.49,3.18.49,4.83,0,13.27-10.76,24.02-24.02,24.02s-24.02-10.76-24.02-24.02,10.76-24.02,24.02-24.02c2.94,0,5.74.55,8.34,1.52l183.57-183.43,82.51,82.52v-73.62l-69.14-69.14v-30.57l47.92-47.94,39.55,39.55h116.4l31.06,31.06h161.23l-96.15-96.16-60.31-59.39h-340.85l-170.69,170.68h118.06l66.01-66.04c-.65-2.17-1.01-4.47-1.01-6.85,0-13.2,10.7-23.9,23.9-23.9s23.9,10.7,23.9,23.9-10.7,23.9-23.9,23.9c-2.16,0-4.24-.31-6.23-.85l-73.1,73.08h-152.1l-65.97,65.97v174.2l110.02-109.87Z" class="cls-1"></path>
  <g>
    <polygon points="937.94 793.77 984.99 746.71 890.75 746.71 937.94 793.77" class="cls-2"></polygon>
    <polygon points="960.19 458.65 960.19 411.76 913.47 411.73 960.19 458.65" class="cls-2"></polygon>
    <polygon points="742.32 448.66 806.7 448.66 824.23 466.19 864.66 466.19 801.88 403.4 697.22 403.54 742.32 448.66" class="cls-2"></polygon>
    <polygon points="1008.23 617.8 1007.75 577.8 1020.38 571.95 1020.38 544.48 902.52 544.48 945.78 587.65 945.78 620.22 821.42 677.39 779.14 669.01 827.47 717.33 961.62 655.66 993.52 687.56 1035.81 645.34 1008.23 617.8" class="cls-2"></polygon>
  </g>
</svg>