<svg viewBox="0 0 408.29 165.5" xmlns:xlink="http://www.w3.org/1999/xlink" xmlns="http://www.w3.org/2000/svg" id="Layer_2">
  <defs>
    <style>
      .cls-1 {
        fill: url(#linear-gradient);
      }

      .cls-2 {
        fill: #3d393c;
      }

      .cls-3 {
        fill: #ed1d3b;
      }
    </style>
    <linearGradient gradientUnits="userSpaceOnUse" y2="82.75" x2="137.9" y1="82.75" x1="0" id="linear-gradient">
      <stop stop-color="#ff7d01" offset="0"></stop>
      <stop stop-color="#ed1d3b" offset="1"></stop>
    </linearGradient>
  </defs>
  <g data-name="Layer_1" id="Layer_1-2">
    <g>
      <g>
        <path d="M214.62,75.44l.03,27.57-18.2-25.58c-.79-1.09-1.82-1.72-3.1-1.91-1.28-.19-2.4.12-3.38.93-.98.81-1.46,1.98-1.46,3.52l.04,40.52h8.84s-.03-27.7-.03-27.7l18.2,25.7c.79,1.09,1.82,1.72,3.1,1.91,1.28.19,2.4-.12,3.38-.93.97-.81,1.46-1.98,1.46-3.52l-.04-40.52h-8.84Z" class="cls-3"></path>
        <polygon points="304.9 75.45 267.14 75.48 267.15 84.21 281.67 84.19 281.71 120.49 290.43 120.48 290.39 84.18 304.91 84.17 304.9 75.45" class="cls-3"></polygon>
        <rect transform="translate(-.1 .32) rotate(-.06)" height="45.02" width="8.72" y="75.46" x="312.22" class="cls-3"></rect>
        <path d="M363.49,82.03c-1.17-2.02-2.76-3.63-4.79-4.81-2.03-1.18-4.26-1.77-6.7-1.77h-9.62c-2.44.01-4.66.61-6.67,1.79-2.01,1.18-3.58,2.79-4.72,4.82-1.14,2.03-1.71,4.26-1.71,6.7l.02,18.46c0,2.44.59,4.67,1.75,6.7,1.16,2.02,2.76,3.63,4.79,4.81,2.03,1.18,4.26,1.77,6.7,1.77h9.51c2.44-.01,4.67-.61,6.69-1.79,2.02-1.18,3.62-2.79,4.78-4.82,1.16-2.03,1.74-4.26,1.74-6.7l-.02-18.46c0-2.44-.59-4.67-1.75-6.69ZM355.92,109.53c-.41.7-.96,1.24-1.63,1.63-.67.39-1.43.59-2.25.59h-9.51c-.83.01-1.58-.19-2.25-.58-.68-.39-1.22-.94-1.63-1.63-.41-.69-.62-1.47-.62-2.33l-.02-18.46c0-.86.2-1.64.62-2.34.41-.69.96-1.24,1.63-1.63.67-.39,1.42-.59,2.25-.59h9.51c.82-.01,1.58.19,2.25.58.68.39,1.22.94,1.63,1.63.41.69.62,1.47.62,2.33l.02,18.46c0,.86-.21,1.64-.62,2.34Z" class="cls-3"></path>
        <path d="M408.09,75.5h-8.84s.03,27.58.03,27.58l-18.2-25.58c-.79-1.09-1.82-1.72-3.1-1.91-1.28-.19-2.4.12-3.38.93-.98.81-1.46,1.98-1.46,3.52l.04,40.52h8.84s-.03-27.7-.03-27.7l18.2,25.7c.79,1.09,1.82,1.72,3.1,1.91,1.27.19,2.4-.12,3.38-.93.97-.81,1.46-1.98,1.46-3.52l-.04-40.52Z" class="cls-3"></path>
        <path d="M216.49,58.37c2.04-1.22,3.66-2.86,4.85-4.92,1.2-2.06,1.79-4.29,1.79-6.69,0-2.43-.6-4.66-1.8-6.68-1.2-2.02-2.81-3.62-4.84-4.8-2.02-1.18-4.25-1.76-6.69-1.76h-10.67c-.82.01-1.58-.21-2.28-.66-.69-.45-1.24-1.05-1.63-1.8-.39-.75-.59-1.53-.59-2.36,0-.82.19-1.6.59-2.33.39-.73.93-1.31,1.63-1.74.69-.43,1.45-.65,2.27-.65l22.13-.02v-8.71s-21.97.02-21.97.02c-2.43,0-4.67.61-6.71,1.83-2.04,1.22-3.66,2.85-4.85,4.89-1.2,2.04-1.79,4.28-1.79,6.71,0,2.43.6,4.69,1.8,6.77,1.2,2.08,2.82,3.71,4.86,4.91,2.04,1.2,4.28,1.79,6.71,1.79h10.62c.82-.01,1.57.19,2.25.6.67.41,1.22.96,1.63,1.66.41.69.62,1.47.62,2.33,0,.82-.2,1.6-.59,2.33-.39.73-.94,1.31-1.63,1.74-.69.43-1.45.65-2.27.65l-21.57.02v8.71s21.46-.02,21.46-.02c2.4,0,4.61-.61,6.65-1.83Z" class="cls-3"></path>
        <path d="M239.46,60.22l-.02-23.95,9.62,16.69c.64,1.05,1.44,1.75,2.42,2.1.97.36,1.94.34,2.89-.03.95-.37,1.73-1.07,2.33-2.08l9.64-16.73.02,23.97h8.76s-.04-41.18-.04-41.18c0-1.31-.52-2.32-1.55-3.03-1.03-.71-2.19-.97-3.48-.78-1.29.19-2.24.83-2.83,1.91l-14.33,25.17-14.38-25.14c-.56-.97-1.48-1.58-2.75-1.82-1.27-.24-2.43-.03-3.48.62-1.05.66-1.57,1.7-1.57,3.12l.04,41.17h8.71Z" class="cls-3"></path>
        <path d="M359.54,41.1c1.95-1.35,3.49-3.1,4.63-5.26,1.14-2.15,1.71-4.39,1.71-6.71,0-2.36-.65-4.61-1.95-6.77-1.29-2.15-3-3.87-5.12-5.16-2.12-1.29-4.37-1.93-6.77-1.93l-17.97.02c-1.24,0-2.27.42-3.09,1.27-.82.84-1.23,1.86-1.23,3.06l.04,40.61h8.59s-.04-36.24-.04-36.24h13.59c.9-.01,1.75.23,2.56.71.81.49,1.45,1.13,1.94,1.94.49.81.73,1.66.73,2.55,0,.86-.21,1.7-.64,2.53-.43.82-1.01,1.5-1.74,2.02-.73.53-1.54.79-2.44.79h-8.54c-1.31.01-2.36.4-3.14,1.19-.79.79-1.18,1.76-1.18,2.92,0,1.16.4,2.25,1.18,3.26l14.4,18.3h10.62s-13.24-17.07-13.24-17.07h.75c2.28,0,4.4-.68,6.34-2.03Z" class="cls-3"></path>
        <polygon points="384.94 60.23 393.65 60.22 393.61 23.99 408.1 23.98 408.09 15.27 370.41 15.31 370.41 24.01 384.91 24 384.94 60.23" class="cls-3"></polygon>
        <path d="M302.34,15.27c-2.4,0-4.14,1.3-5.22,3.88l-16.13,41.07h9.89s3.27-8.67,3.27-8.67h16.46l3.29,8.63h9.83s-16.22-41.05-16.22-41.05c-1.05-2.58-2.78-3.87-5.17-3.87ZM297.39,42.97l4.94-13.08,5,13.08h-9.94Z" class="cls-3"></path>
        <path d="M250.75,75.45c-2.4,0-4.14,1.3-5.23,3.89l-16.17,41.15h9.9s3.29-8.71,3.29-8.71h16.48l3.31,8.68h9.85s-16.25-41.13-16.25-41.13c-1.05-2.59-2.78-3.88-5.18-3.88ZM245.8,103.19l4.95-13.1,5,13.1h-9.95Z" class="cls-3"></path>
      </g>
      <g>
        <g>
          <path d="M199.67,138.43h-7.37c-.27,0-.53.08-.76.22-.23.14-.41.34-.54.58-.13.24-.2.5-.2.78,0,.27.07.54.2.79.13.25.31.45.54.6.23.15.48.22.76.22h3.55c.81,0,1.55.19,2.23.58.67.39,1.21.92,1.61,1.6.4.67.6,1.41.6,2.23,0,.8-.2,1.54-.6,2.23-.4.69-.94,1.23-1.62,1.64-.68.41-1.42.61-2.22.61h-7.15s0-2.89,0-2.89h7.18c.27,0,.53-.08.76-.22.23-.14.41-.34.54-.58.13-.24.2-.5.2-.78,0-.29-.07-.55-.21-.78-.14-.23-.32-.41-.54-.55-.22-.14-.47-.21-.75-.2h-3.54c-.81,0-1.56-.19-2.24-.59-.68-.4-1.22-.94-1.62-1.64-.4-.69-.6-1.44-.6-2.25,0-.81.2-1.56.6-2.24.4-.68.94-1.22,1.62-1.63.68-.41,1.42-.61,2.23-.61h7.31s0,2.89,0,2.89Z" class="cls-2"></path>
          <path d="M218.31,150.48h-2.9s-.02-14.96-.02-14.96h2.9s.02,14.96.02,14.96Z" class="cls-2"></path>
          <path d="M244.55,150.13c-.32.27-.7.37-1.12.31-.42-.06-.77-.27-1.03-.63l-6.82-9.63.77-.24v10.53s-2.93,0-2.93,0v-13.47c-.01-.51.15-.9.47-1.17.32-.27.7-.37,1.12-.31.42.06.77.27,1.03.63l6.84,9.61-.79.26v-10.53s2.93,0,2.93,0v13.47c.01.51-.15.9-.47,1.17Z" class="cls-2"></path>
          <path d="M262.33,149.83c-.68-.4-1.22-.95-1.61-1.63-.39-.68-.59-1.42-.59-2.23v-6.02c0-.81.19-1.56.58-2.24.39-.68.93-1.22,1.61-1.63.68-.41,1.42-.61,2.23-.61h6.83s0,2.95,0,2.95h-6.83c-.27,0-.52.07-.75.2-.22.13-.4.31-.54.54-.14.23-.21.49-.21.78v6.02c0,.29.08.55.21.78.14.23.32.41.54.54.22.13.47.2.75.2h3.1c.27,0,.53-.07.76-.21.23-.14.41-.32.54-.55.13-.23.2-.48.2-.76v-2.23s2.95,0,2.95,0v2.23c0,.8-.2,1.54-.59,2.23-.4.69-.94,1.23-1.63,1.64-.69.41-1.43.61-2.23.61h-3.1c-.81,0-1.56-.2-2.24-.6ZM266.75,141.1h3.89c.42,0,.78.14,1.06.42.28.28.42.63.42,1.06v1.48s-5.37,0-5.37,0v-2.96Z" class="cls-2"></path>
          <path d="M316.97,135.85c.29-.28.63-.42,1.03-.42h5.26c.81,0,1.56.2,2.24.6.69.4,1.23.95,1.63,1.63.4.69.6,1.43.6,2.24,0,.8-.19,1.54-.59,2.22-.39.68-.93,1.22-1.62,1.62-.69.4-1.43.6-2.24.6h-2.69s0-2.86,0-2.86h2.69c.29,0,.55-.07.79-.22.24-.14.43-.34.57-.58.14-.24.21-.51.2-.8,0-.29-.07-.55-.21-.79-.14-.24-.33-.43-.57-.57-.24-.14-.51-.21-.79-.2h-3.83s.01,12.07.01,12.07h-2.9s-.01-13.54-.01-13.54c0-.39.14-.72.43-1Z" class="cls-2"></path>
          <path d="M352.6,135.98c.67.39,1.2.92,1.59,1.6.39.67.58,1.41.58,2.23v6.14c0,.81-.19,1.55-.57,2.23-.39.67-.92,1.21-1.59,1.6-.67.39-1.41.59-2.22.59h-3.16c-.81,0-1.55-.19-2.23-.58-.67-.39-1.2-.92-1.59-1.6-.39-.67-.58-1.41-.58-2.23v-6.14c0-.81.18-1.55.56-2.23.38-.67.9-1.21,1.57-1.6s1.41-.59,2.22-.59h3.2c.81,0,1.55.19,2.23.58ZM346.47,138.49c-.22.13-.41.31-.54.54-.14.23-.21.49-.21.78v6.14c0,.29.08.55.21.78.14.23.32.41.54.54.22.13.47.2.75.2h3.16c.27,0,.52-.07.75-.2.22-.13.4-.31.54-.54.14-.23.21-.49.21-.78v-6.14c0-.29-.08-.55-.21-.78-.14-.23-.32-.41-.54-.54-.22-.13-.47-.2-.75-.2h-3.16c-.27,0-.52.07-.75.2Z" class="cls-2"></path>
          <path d="M370.29,135.8c.27-.28.62-.42,1.03-.42h5.99c.8,0,1.55.21,2.25.64.7.43,1.27,1,1.7,1.72.43.72.65,1.47.65,2.25,0,.77-.19,1.52-.57,2.24-.38.72-.89,1.3-1.54,1.75-.65.45-1.35.67-2.11.68h-1.55s.5-1.03.5-1.03l5.21,6.71h-3.53s-4.79-6.09-4.79-6.09c-.26-.34-.39-.7-.39-1.08,0-.39.13-.71.39-.97s.61-.39,1.05-.39h2.84c.3,0,.57-.09.81-.27.24-.17.44-.4.58-.67.14-.27.21-.55.21-.84,0-.3-.08-.58-.24-.85-.16-.27-.38-.48-.65-.64-.27-.16-.55-.24-.85-.24h-4.53s.01,12.07.01,12.07h-2.86s-.01-13.52-.01-13.52c0-.4.14-.74.41-1.02Z" class="cls-2"></path>
          <path d="M408.28,138.24h-6.88c-.27,0-.52.07-.75.2-.22.13-.41.31-.54.54-.14.23-.21.49-.21.78v6.14c0,.29.08.55.21.78.14.23.32.41.54.54.22.13.47.2.75.2h6.88s0,2.89,0,2.89h-6.85c-.81,0-1.56-.19-2.24-.6-.68-.4-1.22-.95-1.61-1.63-.39-.68-.59-1.42-.59-2.23v-6.02c0-.81.19-1.56.58-2.24.39-.68.93-1.22,1.61-1.63.68-.41,1.42-.61,2.23-.61h6.85s0,2.89,0,2.89ZM407.52,144.3h-6.47s0-2.87,0-2.87h6.47s0,2.87,0,2.87Z" class="cls-2"></path>
        </g>
        <path d="M294.33,135.47c.8,0,1.37.43,1.72,1.29l5.39,13.65h-3.27s-4.33-11.33-4.33-11.33h.95s-4.28,11.34-4.28,11.34h-3.29s5.36-13.65,5.36-13.65c.36-.86.94-1.29,1.74-1.29Z" class="cls-2"></path>
        <rect height="2.85" width="7.5" y="144.67" x="289.87" class="cls-2"></rect>
      </g>
      <path d="M20,58.95c-.11-.38-.17-.79-.17-1.21,0-2.4,1.95-4.34,4.34-4.34s4.34,1.95,4.34,4.34-1.95,4.34-4.34,4.34c-.41,0-.8-.06-1.18-.17l-14.68,14.67v45.01s26.7-26.7,26.7-26.7l5.1,5.1,22.3-22.31c-.13-.42-.2-.86-.2-1.32,0-2.41,1.96-4.37,4.37-4.37s4.37,1.96,4.37,4.37-1.96,4.37-4.37,4.37c-.38,0-.74-.05-1.09-.14l-25.28,25.29-5.11-5.11-14.6,14.59.02,30.61,31.21-31.22c-.11-.38-.17-.78-.17-1.19,0-2.41,1.96-4.37,4.37-4.37s4.37,1.96,4.37,4.37-1.96,4.37-4.37,4.37c-.42,0-.83-.06-1.21-.17l-24.14,24.14.05,23.6h17.71l32.82-32.82c-.12-.4-.19-.82-.19-1.26,0-2.41,1.96-4.37,4.37-4.37s4.37,1.96,4.37,4.37-1.96,4.37-4.37,4.37c-.4,0-.79-.06-1.15-.16l-17.21,17.21h30.18s19.7-19.7,19.7-19.7l2.99,2.99-9.46,9.46h16.36l5.03-5.02v-14.39l-26.01-26.01-14.31,14.32h-9.19l-33.02,33.04c.12.39.18.81.18,1.24,0,2.41-1.96,4.37-4.37,4.37s-4.37-1.96-4.37-4.37,1.96-4.37,4.37-4.37c.41,0,.8.06,1.17.16l34.29-34.3h9.18l21.71-21.71-8.16-8.16-14.64,14.64-9.93-9.93,11.5-11.5-26.85-26.88-30.49,30.53c.06.28.09.58.09.88,0,2.41-1.96,4.37-4.37,4.37s-4.37-1.96-4.37-4.37,1.96-4.37,4.37-4.37c.53,0,1.04.1,1.52.28l33.38-33.35,15,15v-13.39l-12.57-12.57v-5.56l8.71-8.72,7.19,7.19h21.16l5.65,5.65h29.31l-17.48-17.48L109.45,0h-61.97l-31.04,31.03h21.47l12-12.01c-.12-.39-.18-.81-.18-1.25,0-2.4,1.95-4.34,4.34-4.34s4.34,1.95,4.34,4.34-1.95,4.34-4.34,4.34c-.39,0-.77-.06-1.13-.15l-13.29,13.29H12L0,47.25v31.67l20-19.98Z" class="cls-1"></path>
      <g>
        <polygon points="140.51 117.71 149.06 109.15 131.92 109.15 140.51 117.71" class="cls-3"></polygon>
        <polygon points="144.55 56.78 144.55 48.26 136.06 48.25 144.55 56.78" class="cls-3"></polygon>
        <polygon points="104.94 54.96 116.64 54.96 119.83 58.15 127.18 58.15 115.77 46.74 96.74 46.76 104.94 54.96" class="cls-3"></polygon>
        <polygon points="153.29 85.72 153.2 78.44 155.5 77.38 155.5 72.39 134.07 72.39 141.93 80.24 141.93 86.16 119.32 96.55 111.63 95.03 120.42 103.81 144.81 92.6 150.61 98.4 158.3 90.72 153.29 85.72" class="cls-3"></polygon>
      </g>
    </g>
  </g>
</svg>