<!--?xml version="1.0" encoding="UTF-8"?--><svg viewBox="0 0 693.6 169.9" xmlns="http://www.w3.org/2000/svg"><defs><style>.d{fill:#b72126;}.e{fill:#231f20;}.f{fill:none;stroke:#b72126;stroke-miterlimit:10;stroke-width:.5px;}</style></defs><g id="a"></g><g id="b"><g id="c"><g><g><path d="M10.96,144.22c-6.04,0-10.96-4.9-10.96-10.93s4.92-10.93,10.96-10.93,10.96,4.9,10.96,10.93-4.92,10.93-10.96,10.93Zm0-16.97c-3.34,0-6.06,2.71-6.06,6.04s2.72,6.04,6.06,6.04,6.06-2.71,6.06-6.04-2.72-6.04-6.06-6.04Z" class="d"></path><path d="M29.96,64.56c-6.04,0-10.96-4.9-10.96-10.93s4.92-10.93,10.96-10.93,10.96,4.9,10.96,10.93-4.92,10.93-10.96,10.93Zm0-16.97c-3.34,0-6.06,2.71-6.06,6.04s2.72,6.04,6.06,6.04,6.06-2.71,6.06-6.04-2.72-6.04-6.06-6.04Z" class="d"></path><path d="M94.76,135.74c-6.04,0-10.96-4.9-10.96-10.93s4.92-10.93,10.96-10.93,10.96,4.9,10.96,10.93-4.92,10.93-10.96,10.93Zm0-16.97c-3.34,0-6.06,2.71-6.06,6.04s2.72,6.04,6.06,6.04,6.06-2.71,6.06-6.04-2.72-6.04-6.06-6.04Z" class="d"></path><path d="M141.16,169.9c-6.04,0-10.96-4.9-10.96-10.93s4.92-10.93,10.96-10.93,10.96,4.9,10.96,10.93-4.92,10.93-10.96,10.93Zm0-16.97c-3.34,0-6.06,2.71-6.06,6.04s2.72,6.04,6.06,6.04,6.06-2.71,6.06-6.04-2.72-6.04-6.06-6.04Z" class="d"></path><path d="M184.75,144.22c-6.04,0-10.96-4.9-10.96-10.93s4.92-10.93,10.96-10.93,10.96,4.9,10.96,10.93-4.92,10.93-10.96,10.93Zm0-16.97c-3.34,0-6.06,2.71-6.06,6.04s2.72,6.04,6.06,6.04,6.06-2.71,6.06-6.04-2.72-6.04-6.06-6.04Z" class="d"></path><path d="M242.52,124.61c-6.04,0-10.96-4.9-10.96-10.93s4.92-10.93,10.96-10.93,10.96,4.9,10.96,10.93-4.92,10.93-10.96,10.93Zm0-16.97c-3.34,0-6.06,2.71-6.06,6.04s2.72,6.04,6.06,6.04,6.06-2.71,6.06-6.04-2.72-6.04-6.06-6.04Z" class="d"></path><path d="M294.97,50.31c-6.04,0-10.96-4.9-10.96-10.93s4.92-10.93,10.96-10.93,10.96,4.9,10.96,10.93-4.92,10.93-10.96,10.93Zm0-16.97c-3.34,0-6.06,2.71-6.06,6.04s2.72,6.04,6.06,6.04,6.06-2.71,6.06-6.04-2.72-6.04-6.06-6.04Z" class="d"></path><path d="M193.26,56.08c-6.04,0-10.96-4.9-10.96-10.93s4.92-10.93,10.96-10.93,10.96,4.9,10.96,10.93-4.92,10.93-10.96,10.93Zm0-16.97c-3.34,0-6.06,2.71-6.06,6.04s2.72,6.04,6.06,6.04,6.06-2.71,6.06-6.04-2.72-6.04-6.06-6.04Z" class="d"></path><path d="M248.49,58.18c-6.04,0-10.96-4.9-10.96-10.93s4.92-10.93,10.96-10.93,10.96,4.9,10.96,10.93-4.92,10.93-10.96,10.93Zm0-16.97c-3.34,0-6.06,2.71-6.06,6.04s2.72,6.04,6.06,6.04,6.06-2.71,6.06-6.04-2.72-6.04-6.06-6.04Z" class="d"></path><path d="M136.55,21.85c-6.04,0-10.96-4.9-10.96-10.93s4.92-10.93,10.96-10.93,10.96,4.9,10.96,10.93-4.92,10.93-10.96,10.93Zm0-16.97c-3.34,0-6.06,2.71-6.06,6.04s2.72,6.04,6.06,6.04,6.06-2.71,6.06-6.04-2.72-6.04-6.06-6.04Z" class="d"></path><path d="M88.16,41.21c-6.04,0-10.96-4.9-10.96-10.93s4.92-10.93,10.96-10.93,10.96,4.9,10.96,10.93-4.92,10.93-10.96,10.93Zm0-16.97c-3.34,0-6.06,2.71-6.06,6.04s2.72,6.04,6.06,6.04,6.06-2.71,6.06-6.04-2.72-6.04-6.06-6.04Z" class="d"></path><polygon points="15.72 125.66 10.94 124.63 24.55 61.61 29.34 62.64 15.72 125.66" class="d"></polygon><rect transform="translate(-11.54 5.3) rotate(-5.18)" height="4.88" width="67.05" y="127.85" x="19.33" class="d"></rect><polygon points="131.99 159.52 97.74 134 100.67 130.09 134.92 155.6 131.99 159.52" class="d"></polygon><polygon points="232.81 115.81 93.56 37.77 95.96 33.51 235.21 111.55 232.81 115.81" class="d"></polygon><rect transform="translate(-5.19 6.62) rotate(-4)" height="77.83" width="4.9" y="38.59" x="89.6" class="d"></rect><polygon points="86.32 121.82 33.71 61.63 37.41 58.42 90.01 118.62 86.32 121.82" class="d"></polygon><polygon points="20.08 130.1 16.11 127.24 82.07 36.29 86.04 39.15 20.08 130.1" class="d"></polygon><polygon points="176.48 130.83 37.07 57.9 39.35 53.58 178.75 126.51 176.48 130.83" class="d"></polygon><polygon points="150.9 158.65 148.44 154.43 177.75 137.43 180.21 141.64 150.9 158.65" class="d"></polygon><rect transform="translate(-6.79 254.57) rotate(-83.37)" height="73.45" width="4.88" y="94.37" x="137.11" class="d"></rect><rect transform="translate(80.1 170.19) rotate(-80.42)" height="89.32" width="4.88" y="-6.94" x="138.27" class="d"></rect><polygon points="179.07 126.04 137.11 19.19 141.67 17.41 183.63 124.26 179.07 126.04" class="d"></polygon><polygon points="190.24 127.57 186.3 124.67 240.09 51.98 244.03 54.88 190.24 127.57" class="d"></polygon><polygon points="236.17 108.61 194.96 54.29 198.86 51.35 240.07 105.67 236.17 108.61" class="d"></polygon><polygon points="193.91 132.64 192.61 127.93 235.21 116.23 236.51 120.94 193.91 132.64" class="d"></polygon><rect transform="translate(142.11 317.57) rotate(-84.43)" height="4.9" width="49.69" y="78.02" x="221.22" class="d"></rect><rect transform="translate(162.6 264.2) rotate(-86.85)" height="38.27" width="4.88" y="27.07" x="218.43" class="d"></rect><polygon points="186.32 41.23 143.73 13.81 146.39 9.71 188.98 37.13 186.32 41.23" class="d"></polygon><polygon points="95.66 28.99 93.8 24.47 127.11 10.86 128.97 15.37 95.66 28.99" class="d"></polygon><polygon points="37.93 51.24 36.19 46.68 78.78 30.47 80.52 35.04 37.93 51.24" class="d"></polygon><polygon points="257.52 49.64 256.48 44.87 286.07 38.47 287.11 43.24 257.52 49.64" class="d"></polygon><polygon points="251.34 109.98 247.32 107.21 289.79 45.87 293.82 48.65 251.34 109.98" class="d"></polygon><polygon points="102.76 120.28 99.76 116.42 186.15 49.61 189.15 53.46 102.76 120.28" class="d"></polygon></g><g><path d="M332.54,59.55l1.83-3.15c.41-.71,1.27-.71,1.73-.35,.25,.15,4.36,3.15,7.66,3.15,2.64,0,4.62-1.73,4.62-3.91,0-2.59-2.18-4.36-6.44-6.09-4.77-1.93-9.54-4.97-9.54-10.96,0-4.52,3.35-9.74,11.42-9.74,5.18,0,9.13,2.64,10.15,3.4,.51,.3,.66,1.17,.3,1.67l-1.93,2.89c-.41,.61-1.17,1.01-1.78,.61-.41-.25-4.26-2.79-7.05-2.79s-4.46,1.93-4.46,3.55c0,2.38,1.88,4.01,5.99,5.68,4.92,1.98,10.6,4.92,10.6,11.47,0,5.23-4.52,10.05-11.67,10.05-6.39,0-10.15-2.99-11.16-3.96-.46-.46-.71-.71-.25-1.52Z" class="e"></path><path d="M365.82,29.26c.05-.41,.35-.76,.91-.76h.81c.41,0,.71,.2,.86,.51l11.16,23.95h.15l11.16-23.95c.15-.3,.41-.51,.86-.51h.81c.56,0,.86,.35,.91,.76l5.99,34.09c.15,.71-.25,1.17-.91,1.17h-4.62c-.46,0-.86-.41-.96-.76l-2.99-19.23h-.15l-8.88,19.94c-.1,.3-.41,.56-.86,.56h-.91c-.46,0-.71-.25-.86-.56l-8.98-19.94h-.15l-2.94,19.23c-.05,.36-.46,.76-.91,.76h-4.57c-.66,0-1.07-.46-.96-1.17l6.04-34.09Z" class="e"></path><path d="M401.79,63.21l15.78-34.14c.15-.3,.41-.56,.86-.56h.51c.51,0,.71,.25,.86,.56l15.63,34.14c.3,.66-.1,1.32-.86,1.32h-4.41c-.76,0-1.12-.3-1.47-1.01l-2.49-5.48h-15.17l-2.49,5.48c-.2,.51-.66,1.01-1.47,1.01h-4.41c-.76,0-1.17-.66-.86-1.32Zm21.92-10.81l-5.07-11.16h-.15l-4.97,11.16h10.2Z" class="e"></path><path d="M440.04,29.97c0-.51,.41-.96,.96-.96h14.51c6.09,0,11.06,4.87,11.06,10.91,0,4.67-3.09,8.47-7.51,10.25l6.95,12.89c.36,.66,0,1.47-.86,1.47h-5.33c-.46,0-.71-.25-.81-.46l-6.75-13.44h-5.63v12.94c0,.51-.46,.96-.96,.96h-4.67c-.56,0-.96-.46-.96-.96V29.97Zm14.92,15.22c2.69,0,5.02-2.33,5.02-5.18,0-2.69-2.33-4.92-5.02-4.92h-8.27v10.1h8.27Z" class="e"></path><path d="M478.6,35.1h-7.76c-.56,0-.96-.46-.96-.96v-4.16c0-.51,.41-.96,.96-.96h22.17c.56,0,.96,.46,.96,.96v4.16c0,.51-.41,.96-.96,.96h-7.76v28.46c0,.51-.46,.96-.96,.96h-4.72c-.51,0-.96-.46-.96-.96v-28.46Z" class="e"></path><path d="M510.46,29.42c0-.51,.46-.91,.96-.91h1.27l21.11,22.42h.05V29.97c0-.51,.41-.96,.96-.96h4.67c.51,0,.96,.46,.96,.96v34.15c0,.51-.46,.91-.96,.91h-1.22l-21.21-23.29h-.05v21.82c0,.51-.41,.96-.96,.96h-4.62c-.51,0-.96-.46-.96-.96V29.42Z" class="e"></path><path d="M545.06,63.21l15.78-34.14c.15-.3,.41-.56,.86-.56h.51c.51,0,.71,.25,.86,.56l15.63,34.14c.3,.66-.1,1.32-.86,1.32h-4.41c-.76,0-1.12-.3-1.47-1.01l-2.49-5.48h-15.17l-2.49,5.48c-.2,.51-.66,1.01-1.47,1.01h-4.41c-.76,0-1.17-.66-.86-1.32Zm21.92-10.81l-5.07-11.16h-.15l-4.97,11.16h10.2Z" class="e"></path><path d="M586.2,35.1h-7.76c-.56,0-.96-.46-.96-.96v-4.16c0-.51,.41-.96,.96-.96h22.17c.56,0,.96,.46,.96,.96v4.16c0,.51-.41,.96-.96,.96h-7.76v28.46c0,.51-.46,.96-.96,.96h-4.72c-.51,0-.96-.46-.96-.96v-28.46Z" class="e"></path><path d="M606.85,29.97c0-.51,.46-.96,.96-.96h4.72c.51,0,.96,.46,.96,.96V63.56c0,.51-.46,.96-.96,.96h-4.72c-.51,0-.96-.46-.96-.96V29.97Z" class="e"></path><path d="M638.4,28.5c10.15,0,18.26,8.17,18.26,18.32s-8.12,18.21-18.26,18.21-18.21-8.07-18.21-18.21,8.07-18.32,18.21-18.32Zm0,29.93c6.39,0,11.67-5.23,11.67-11.62s-5.28-11.72-11.67-11.72-11.62,5.33-11.62,11.72,5.23,11.62,11.62,11.62Z" class="e"></path><path d="M663.31,29.42c0-.51,.46-.91,.96-.91h1.27l21.11,22.42h.05V29.97c0-.51,.41-.96,.96-.96h4.67c.51,0,.96,.46,.96,.96v34.15c0,.51-.46,.91-.96,.91h-1.22l-21.21-23.29h-.05v21.82c0,.51-.41,.96-.96,.96h-4.62c-.51,0-.96-.46-.96-.96V29.42Z" class="e"></path></g><g><path d="M332.32,102.75c0-.31,.2-.59,.46-.59h6.02c4.91,0,8.92,4.89,8.92,10.86s-4.02,10.93-8.92,10.93h-6.02c-.25,0-.46-.28-.46-.59v-20.61Zm6.18,17.4c3.3,0,5.72-3.05,5.72-7.13s-2.42-7.1-5.72-7.1h-2.9v14.23h2.9Z" class="e"></path><path d="M350.82,102.75c0-.31,.23-.59,.48-.59h2.36c.25,0,.48,.28,.48,.59v20.61c0,.31-.23,.59-.48,.59h-2.36c-.25,0-.48-.28-.48-.59v-20.61Z" class="e"></path><path d="M366.38,101.85c2.29,0,4.47,1.09,6.2,2.89,.2,.25,.23,.62,.03,.87l-1.58,2.02c-.2,.25-.43,.25-.66,0-1.09-1.18-2.44-1.81-3.84-1.81-3.18,0-5.69,3.33-5.69,7.22s2.52,7.13,5.72,7.13c1.42,0,2.52-.53,3.03-.78v-2.65h-2.03c-.28,0-.48-.25-.48-.56v-2.46c0-.34,.2-.59,.48-.59h4.88c.25,0,.46,.28,.46,.59v7.97c0,.25-.1,.4-.2,.5,0,0-2.62,2.02-6.3,2.02-5.06,0-9.13-4.92-9.13-11.14s4.07-11.24,9.13-11.24Z" class="e"></path><path d="M376.37,102.75c0-.31,.23-.59,.48-.59h2.36c.25,0,.48,.28,.48,.59v20.61c0,.31-.23,.59-.48,.59h-2.36c-.25,0-.48-.28-.48-.59v-20.61Z" class="e"></path><path d="M386.47,105.9h-3.89c-.28,0-.48-.28-.48-.59v-2.55c0-.31,.2-.59,.48-.59h11.11c.28,0,.48,.28,.48,.59v2.55c0,.31-.2,.59-.48,.59h-3.89v17.46c0,.31-.23,.59-.48,.59h-2.36c-.25,0-.48-.28-.48-.59v-17.46Z" class="e"></path><path d="M393.28,123.14l7.91-20.95c.08-.19,.2-.34,.43-.34h.25c.25,0,.36,.16,.43,.34l7.83,20.95c.15,.41-.05,.81-.43,.81h-2.21c-.38,0-.56-.19-.74-.62l-1.25-3.36h-7.6l-1.25,3.36c-.1,.31-.33,.62-.74,.62h-2.21c-.38,0-.58-.4-.43-.81Zm10.98-6.63l-2.54-6.85h-.08l-2.49,6.85h5.11Z" class="e"></path><path d="M412.19,102.75c0-.31,.2-.59,.48-.59h2.34c.25,0,.48,.28,.48,.59v17.46h6.48c.28,0,.48,.28,.48,.59v2.55c0,.31-.2,.59-.48,.59h-9.3c-.28,0-.48-.28-.48-.59v-20.61Z" class="e"></path><path d="M438,101.85c2.29,0,4.47,1.09,6.2,2.89,.2,.25,.23,.62,.03,.87l-1.58,2.02c-.2,.25-.43,.25-.66,0-1.09-1.18-2.44-1.81-3.84-1.81-3.18,0-5.69,3.33-5.69,7.22s2.52,7.13,5.72,7.13c1.42,0,2.52-.53,3.03-.78v-2.65h-2.03c-.28,0-.48-.25-.48-.56v-2.46c0-.34,.2-.59,.48-.59h4.88c.25,0,.46,.28,.46,.59v7.97c0,.25-.1,.4-.2,.5,0,0-2.62,2.02-6.3,2.02-5.06,0-9.13-4.92-9.13-11.14s4.07-11.24,9.13-11.24Z" class="e"></path><path d="M455.85,101.85c5.08,0,9.15,5.01,9.15,11.24s-4.07,11.17-9.15,11.17-9.13-4.95-9.13-11.17,4.04-11.24,9.13-11.24Zm0,18.37c3.2,0,5.85-3.21,5.85-7.13s-2.64-7.19-5.85-7.19-5.82,3.27-5.82,7.19,2.62,7.13,5.82,7.13Z" class="e"></path><path d="M465.63,102.97c-.15-.4,.05-.81,.43-.81h2.59c.23,0,.38,.19,.43,.34l4.88,13.38h.18l4.88-13.38c.05-.16,.2-.34,.43-.34h2.59c.38,0,.58,.4,.43,.81l-7.88,20.95c-.08,.19-.2,.34-.43,.34h-.25c-.23,0-.36-.16-.43-.34l-7.86-20.95Z" class="e"></path><path d="M484.55,102.75c0-.31,.2-.59,.48-.59h10.35c.28,0,.48,.28,.48,.59v2.55c0,.31-.2,.59-.48,.59h-7.52v5.11h6.28c.25,0,.48,.28,.48,.59v2.58c0,.34-.23,.59-.48,.59h-6.28v5.45h7.52c.28,0,.48,.28,.48,.59v2.55c0,.31-.2,.59-.48,.59h-10.35c-.28,0-.48-.28-.48-.59v-20.61Z" class="e"></path><path d="M499.24,102.75c0-.31,.2-.59,.48-.59h7.27c3.05,0,5.54,2.99,5.54,6.69,0,2.86-1.55,5.2-3.76,6.29l3.48,7.91c.18,.4,0,.9-.43,.9h-2.67c-.23,0-.36-.16-.41-.28l-3.38-8.25h-2.82v7.94c0,.31-.23,.59-.48,.59h-2.34c-.28,0-.48-.28-.48-.59v-20.61Zm7.47,9.34c1.35,0,2.52-1.43,2.52-3.18,0-1.65-1.17-3.02-2.52-3.02h-4.14v6.2h4.14Z" class="e"></path><path d="M515.92,102.41c0-.31,.23-.56,.48-.56h.64l10.58,13.76h.03v-12.86c0-.31,.2-.59,.48-.59h2.34c.25,0,.48,.28,.48,.59v20.95c0,.31-.23,.56-.48,.56h-.61l-10.63-14.29h-.03v13.38c0,.31-.2,.59-.48,.59h-2.31c-.25,0-.48-.28-.48-.59v-20.95Z" class="e"></path><path d="M537.17,102.32c.03-.25,.18-.47,.46-.47h.41c.2,0,.36,.12,.43,.31l5.59,14.69h.08l5.59-14.69c.08-.19,.2-.31,.43-.31h.41c.28,0,.43,.22,.46,.47l3,20.92c.08,.44-.13,.72-.46,.72h-2.31c-.23,0-.43-.25-.48-.47l-1.5-11.8h-.08l-4.45,12.23c-.05,.19-.2,.34-.43,.34h-.46c-.23,0-.36-.16-.43-.34l-4.5-12.23h-.08l-1.47,11.8c-.03,.22-.23,.47-.46,.47h-2.29c-.33,0-.53-.28-.48-.72l3.03-20.92Z" class="e"></path><path d="M557.26,102.75c0-.31,.2-.59,.48-.59h10.35c.28,0,.48,.28,.48,.59v2.55c0,.31-.2,.59-.48,.59h-7.52v5.11h6.28c.25,0,.48,.28,.48,.59v2.58c0,.34-.23,.59-.48,.59h-6.28v5.45h7.52c.28,0,.48,.28,.48,.59v2.55c0,.31-.2,.59-.48,.59h-10.35c-.28,0-.48-.28-.48-.59v-20.61Z" class="e"></path><path d="M571.95,102.41c0-.31,.23-.56,.48-.56h.64l10.58,13.76h.03v-12.86c0-.31,.2-.59,.48-.59h2.34c.25,0,.48,.28,.48,.59v20.95c0,.31-.23,.56-.48,.56h-.61l-10.63-14.29h-.03v13.38c0,.31-.2,.59-.48,.59h-2.31c-.25,0-.48-.28-.48-.59v-20.95Z" class="e"></path><path d="M593.74,105.9h-3.89c-.28,0-.48-.28-.48-.59v-2.55c0-.31,.2-.59,.48-.59h11.11c.28,0,.48,.28,.48,.59v2.55c0,.31-.2,.59-.48,.59h-3.89v17.46c0,.31-.23,.59-.48,.59h-2.36c-.25,0-.48-.28-.48-.59v-17.46Z" class="e"></path><path d="M617.06,101.85c5.08,0,9.15,5.01,9.15,11.24s-4.07,11.17-9.15,11.17-9.13-4.95-9.13-11.17,4.04-11.24,9.13-11.24Zm0,18.37c3.2,0,5.85-3.21,5.85-7.13s-2.64-7.19-5.85-7.19-5.82,3.27-5.82,7.19,2.62,7.13,5.82,7.13Z" class="e"></path><path d="M629.28,102.75c0-.31,.2-.59,.48-.59h10.35c.28,0,.48,.28,.48,.59v2.55c0,.31-.2,.59-.48,.59h-7.52v5.85h6.28c.25,0,.48,.28,.48,.59v2.55c0,.31-.23,.59-.48,.59h-6.28v7.88c0,.31-.23,.59-.48,.59h-2.34c-.28,0-.48-.28-.48-.59v-20.61Z" class="e"></path><path d="M643.37,102.75c0-.31,.2-.59,.48-.59h10.35c.28,0,.48,.28,.48,.59v2.55c0,.31-.2,.59-.48,.59h-7.52v5.85h6.28c.25,0,.48,.28,.48,.59v2.55c0,.31-.23,.59-.48,.59h-6.28v7.88c0,.31-.23,.59-.48,.59h-2.34c-.28,0-.48-.28-.48-.59v-20.61Z" class="e"></path><path d="M657.45,102.75c0-.31,.23-.59,.48-.59h2.36c.25,0,.48,.28,.48,.59v20.61c0,.31-.23,.59-.48,.59h-2.36c-.25,0-.48-.28-.48-.59v-20.61Z" class="e"></path><path d="M673.04,101.85c2.57,0,4.42,1,6.15,2.89,.23,.25,.23,.62,.03,.87l-1.55,1.96c-.18,.25-.43,.25-.64,0-1.07-1.15-2.49-1.84-3.91-1.84-3.25,0-5.67,3.33-5.67,7.25s2.44,7.19,5.69,7.19c1.53,0,2.82-.72,3.89-1.77,.2-.22,.48-.19,.64,0l1.58,1.99c.2,.22,.15,.62-.03,.84-1.73,2.05-3.92,3.02-6.18,3.02-5.08,0-9.18-4.95-9.18-11.17s4.09-11.24,9.18-11.24Z" class="e"></path><path d="M682.29,102.75c0-.31,.2-.59,.48-.59h10.35c.28,0,.48,.28,.48,.59v2.55c0,.31-.2,.59-.48,.59h-7.52v5.11h6.28c.25,0,.48,.28,.48,.59v2.58c0,.34-.23,.59-.48,.59h-6.28v5.45h7.52c.28,0,.48,.28,.48,.59v2.55c0,.31-.2,.59-.48,.59h-10.35c-.28,0-.48-.28-.48-.59v-20.61Z" class="e"></path></g><path d="M506.43,82.2v-.06l-.83-.81c-1.35-1.28-2.49-2.68-2.42-4.54,0-2.37,1.94-5.04,6.12-5.04,3.74,0,5.85,2.21,5.85,4.79,0,2.77-3.11,4.86-5.12,5.98l5.71,5.14c.9-1.65,1.38-3.55,1.38-5.54,0-.68,.28-.72,.79-.72h.83c.73,0,.66,.47,.66,.72,0,2.4-.76,4.95-2.04,7l3.32,2.99c.42,.4,.69,.72-.03,1.43l-.42,.34c-.42,.34-.93,.4-1.45-.09l-2.94-2.74c-1.87,1.9-4.43,3.11-7.54,3.11-4.36,0-6.68-2.68-6.68-5.73,0-3.36,2.94-5.23,4.81-6.23Zm1.97,10.02c2.39,0,4.43-1.03,5.92-2.65l-6.4-6.04c-1.59,.87-3.87,2.46-3.87,4.92,0,2.18,1.94,3.77,4.36,3.77Zm4.32-15.63c0-1.49-1.28-3.02-3.63-3.02s-3.6,1.46-3.6,3.27c-.07,1.34,.9,2.4,2.21,3.55l.76,.68c1.56-.84,4.25-2.24,4.25-4.48Z" class="e"></path><line y2="83.18" x2="474.13" y1="83.18" x1="330.01" class="f"></line><line y2="83.18" x2="692.49" y1="83.18" x1="548.37" class="f"></line></g></g></g></svg>